<svg width="216" height="227" viewBox="0 0 216 227" fill="none" xmlns="http://www.w3.org/2000/svg">
<g filter="url(#filter0_b_2_575)">
<path d="M0 96C0 50.7452 0 28.1177 14.0589 14.0589C28.1177 0 50.7452 0 96 0H108L111.25 0C129.613 0 144.5 14.8865 144.5 33.25C144.5 51.6135 159.387 66.5 177.75 66.5H180.25C199.994 66.5 216 82.5058 216 102.25V113.5V131C216 176.255 216 198.882 201.941 212.941C187.882 227 165.255 227 120 227H96C50.7452 227 28.1177 227 14.0589 212.941C0 198.882 0 176.255 0 131V96Z" fill="#080A1E"/>
<path d="M0.5 96C0.5 73.3584 0.501062 56.4276 2.2529 43.3976C4.00281 30.382 7.49137 21.3335 14.4124 14.4124C21.3335 7.49137 30.382 4.00281 43.3976 2.2529C56.4276 0.501062 73.3585 0.5 96 0.5H108H111.25C129.337 0.5 144 15.1627 144 33.25C144 51.8896 159.11 67 177.75 67H180.25C199.718 67 215.5 82.782 215.5 102.25V113.5V131C215.5 153.642 215.499 170.572 213.747 183.602C211.997 196.618 208.509 205.667 201.588 212.588C194.667 219.509 185.618 222.997 172.602 224.747C159.572 226.499 142.642 226.5 120 226.5H96C73.3584 226.5 56.4276 226.499 43.3976 224.747C30.382 222.997 21.3335 219.509 14.4124 212.588C7.49137 205.667 4.00281 196.618 2.2529 183.602C0.501062 170.572 0.5 153.642 0.5 131V96Z" stroke="white" stroke-opacity="0.6"/>
</g>
<g filter="url(#filter1_b_2_575)">
<rect x="151" width="58" height="58" rx="29" fill="#080A1E"/>
</g>
<path d="M174 35L185.489 23.5112" stroke="white" stroke-width="2" stroke-linecap="round" stroke-linejoin="round"/>
<path d="M187 31.1233V22H177.877" stroke="white" stroke-width="2" stroke-linecap="round" stroke-linejoin="round"/>
<path d="M36.048 67V50.68H38.808V67H36.048ZM30.576 52.72V50.2H44.28V52.72H30.576ZM48.6268 67.24C47.5068 67.24 46.4908 66.976 45.5788 66.448C44.6668 65.904 43.9388 65.176 43.3948 64.264C42.8668 63.352 42.6028 62.336 42.6028 61.216C42.6028 60.096 42.8668 59.088 43.3948 58.192C43.9388 57.296 44.6668 56.584 45.5788 56.056C46.4908 55.512 47.5068 55.24 48.6268 55.24C49.7628 55.24 50.7868 55.504 51.6988 56.032C52.6108 56.56 53.3308 57.28 53.8588 58.192C54.4028 59.088 54.6748 60.096 54.6748 61.216C54.6748 62.336 54.4028 63.352 53.8588 64.264C53.3308 65.176 52.6108 65.904 51.6988 66.448C50.7868 66.976 49.7628 67.24 48.6268 67.24ZM48.6268 64.696C49.2828 64.696 49.8588 64.552 50.3548 64.264C50.8668 63.96 51.2588 63.544 51.5308 63.016C51.8188 62.488 51.9628 61.888 51.9628 61.216C51.9628 60.544 51.8188 59.952 51.5308 59.44C51.2428 58.928 50.8508 58.528 50.3548 58.24C49.8588 57.936 49.2828 57.784 48.6268 57.784C47.9868 57.784 47.4108 57.936 46.8988 58.24C46.4028 58.528 46.0108 58.928 45.7228 59.44C45.4508 59.952 45.3148 60.544 45.3148 61.216C45.3148 61.888 45.4508 62.488 45.7228 63.016C46.0108 63.544 46.4028 63.96 46.8988 64.264C47.4108 64.552 47.9868 64.696 48.6268 64.696ZM66.4989 67.24C65.4589 67.24 64.5149 66.976 63.6669 66.448C62.8349 65.92 62.1709 65.208 61.6749 64.312C61.1949 63.4 60.9549 62.384 60.9549 61.264C60.9549 60.128 61.1949 59.112 61.6749 58.216C62.1709 57.304 62.8349 56.584 63.6669 56.056C64.5149 55.512 65.4589 55.24 66.4989 55.24C67.3789 55.24 68.1549 55.432 68.8269 55.816C69.5149 56.184 70.0589 56.696 70.4589 57.352C70.8589 58.008 71.0589 58.752 71.0589 59.584V62.896C71.0589 63.728 70.8589 64.472 70.4589 65.128C70.0749 65.784 69.5389 66.304 68.8509 66.688C68.1629 67.056 67.3789 67.24 66.4989 67.24ZM66.9309 64.744C67.5869 64.744 68.1549 64.6 68.6349 64.312C69.1309 64.008 69.5149 63.592 69.7869 63.064C70.0589 62.536 70.1949 61.928 70.1949 61.24C70.1949 60.552 70.0589 59.944 69.7869 59.416C69.5149 58.888 69.1309 58.48 68.6349 58.192C68.1549 57.888 67.5869 57.736 66.9309 57.736C66.2909 57.736 65.7229 57.888 65.2269 58.192C64.7469 58.48 64.3629 58.888 64.0749 59.416C63.8029 59.944 63.6669 60.552 63.6669 61.24C63.6669 61.928 63.8029 62.536 64.0749 63.064C64.3629 63.592 64.7469 64.008 65.2269 64.312C65.7229 64.6 66.2909 64.744 66.9309 64.744ZM72.6669 67H70.0269V63.904L70.4829 61.096L70.0269 58.312V49.72H72.6669V67ZM80.8768 67.24C79.7568 67.24 78.7408 66.976 77.8288 66.448C76.9168 65.904 76.1888 65.176 75.6448 64.264C75.1168 63.352 74.8528 62.336 74.8528 61.216C74.8528 60.096 75.1168 59.088 75.6448 58.192C76.1888 57.296 76.9168 56.584 77.8288 56.056C78.7408 55.512 79.7568 55.24 80.8768 55.24C82.0128 55.24 83.0368 55.504 83.9488 56.032C84.8608 56.56 85.5808 57.28 86.1088 58.192C86.6528 59.088 86.9248 60.096 86.9248 61.216C86.9248 62.336 86.6528 63.352 86.1088 64.264C85.5808 65.176 84.8608 65.904 83.9488 66.448C83.0368 66.976 82.0128 67.24 80.8768 67.24ZM80.8768 64.696C81.5328 64.696 82.1088 64.552 82.6048 64.264C83.1168 63.96 83.5088 63.544 83.7808 63.016C84.0688 62.488 84.2128 61.888 84.2128 61.216C84.2128 60.544 84.0688 59.952 83.7808 59.44C83.4928 58.928 83.1008 58.528 82.6048 58.24C82.1088 57.936 81.5328 57.784 80.8768 57.784C80.2368 57.784 79.6608 57.936 79.1488 58.24C78.6528 58.528 78.2608 58.928 77.9728 59.44C77.7008 59.952 77.5648 60.544 77.5648 61.216C77.5648 61.888 77.7008 62.488 77.9728 63.016C78.2608 63.544 78.6528 63.96 79.1488 64.264C79.6608 64.552 80.2368 64.696 80.8768 64.696Z" fill="#8A8AAA"/>
<path d="M107.224 154V143.216H108.664V154H107.224ZM105.352 147.712V146.4H110.536V147.712H105.352ZM114.944 154.16C114.251 154.16 113.622 153.989 113.056 153.648C112.491 153.296 112.043 152.821 111.712 152.224C111.392 151.627 111.232 150.955 111.232 150.208C111.232 149.461 111.392 148.789 111.712 148.192C112.043 147.595 112.486 147.12 113.04 146.768C113.606 146.416 114.24 146.24 114.944 146.24C115.52 146.24 116.032 146.363 116.48 146.608C116.939 146.843 117.307 147.173 117.584 147.6C117.862 148.016 118.016 148.501 118.048 149.056V151.344C118.016 151.888 117.862 152.373 117.584 152.8C117.318 153.227 116.955 153.563 116.496 153.808C116.048 154.043 115.531 154.16 114.944 154.16ZM115.184 152.8C115.899 152.8 116.475 152.56 116.912 152.08C117.35 151.589 117.568 150.965 117.568 150.208C117.568 149.685 117.467 149.232 117.264 148.848C117.072 148.453 116.795 148.149 116.432 147.936C116.07 147.712 115.648 147.6 115.168 147.6C114.688 147.6 114.262 147.712 113.888 147.936C113.526 148.16 113.238 148.469 113.024 148.864C112.822 149.248 112.72 149.691 112.72 150.192C112.72 150.704 112.822 151.157 113.024 151.552C113.238 151.936 113.531 152.24 113.904 152.464C114.278 152.688 114.704 152.8 115.184 152.8ZM117.472 154V151.952L117.744 150.096L117.472 148.256V146.4H118.928V154H117.472ZM123.441 154.16C123.014 154.16 122.609 154.107 122.225 154C121.851 153.883 121.505 153.723 121.185 153.52C120.865 153.307 120.587 153.056 120.353 152.768L121.281 151.84C121.558 152.181 121.878 152.437 122.241 152.608C122.603 152.768 123.009 152.848 123.457 152.848C123.905 152.848 124.251 152.773 124.497 152.624C124.742 152.464 124.865 152.245 124.865 151.968C124.865 151.691 124.763 151.477 124.561 151.328C124.369 151.168 124.118 151.04 123.809 150.944C123.499 150.837 123.169 150.736 122.817 150.64C122.475 150.533 122.15 150.4 121.841 150.24C121.531 150.08 121.275 149.861 121.073 149.584C120.881 149.307 120.785 148.939 120.785 148.48C120.785 148.021 120.897 147.627 121.121 147.296C121.345 146.955 121.654 146.693 122.049 146.512C122.454 146.331 122.939 146.24 123.505 146.24C124.102 146.24 124.63 146.347 125.089 146.56C125.558 146.763 125.942 147.072 126.241 147.488L125.313 148.416C125.099 148.139 124.833 147.925 124.513 147.776C124.203 147.627 123.851 147.552 123.457 147.552C123.041 147.552 122.721 147.627 122.497 147.776C122.283 147.915 122.177 148.112 122.177 148.368C122.177 148.624 122.273 148.821 122.465 148.96C122.657 149.099 122.907 149.216 123.217 149.312C123.537 149.408 123.867 149.509 124.209 149.616C124.55 149.712 124.875 149.845 125.185 150.016C125.494 150.187 125.745 150.416 125.937 150.704C126.139 150.992 126.241 151.371 126.241 151.84C126.241 152.555 125.985 153.12 125.473 153.536C124.971 153.952 124.294 154.16 123.441 154.16ZM132.717 154L129.165 150.112L132.685 146.4H134.429L130.509 150.496L130.573 149.664L134.573 154H132.717ZM127.853 154V142.576H129.293V154H127.853ZM137.785 154.16C137.358 154.16 136.953 154.107 136.569 154C136.195 153.883 135.849 153.723 135.529 153.52C135.209 153.307 134.931 153.056 134.697 152.768L135.625 151.84C135.902 152.181 136.222 152.437 136.585 152.608C136.947 152.768 137.353 152.848 137.801 152.848C138.249 152.848 138.595 152.773 138.841 152.624C139.086 152.464 139.209 152.245 139.209 151.968C139.209 151.691 139.107 151.477 138.905 151.328C138.713 151.168 138.462 151.04 138.153 150.944C137.843 150.837 137.513 150.736 137.161 150.64C136.819 150.533 136.494 150.4 136.185 150.24C135.875 150.08 135.619 149.861 135.417 149.584C135.225 149.307 135.129 148.939 135.129 148.48C135.129 148.021 135.241 147.627 135.465 147.296C135.689 146.955 135.998 146.693 136.393 146.512C136.798 146.331 137.283 146.24 137.849 146.24C138.446 146.24 138.974 146.347 139.433 146.56C139.902 146.763 140.286 147.072 140.585 147.488L139.657 148.416C139.443 148.139 139.177 147.925 138.857 147.776C138.547 147.627 138.195 147.552 137.801 147.552C137.385 147.552 137.065 147.627 136.841 147.776C136.627 147.915 136.521 148.112 136.521 148.368C136.521 148.624 136.617 148.821 136.809 148.96C137.001 149.099 137.251 149.216 137.561 149.312C137.881 149.408 138.211 149.509 138.553 149.616C138.894 149.712 139.219 149.845 139.529 150.016C139.838 150.187 140.089 150.416 140.281 150.704C140.483 150.992 140.585 151.371 140.585 151.84C140.585 152.555 140.329 153.12 139.817 153.536C139.315 153.952 138.638 154.16 137.785 154.16Z" fill="#8A8AAB"/>
<path d="M37.968 176V142.4H43.392V176H37.968ZM31.248 147.344V142.4H42.912V147.344H31.248ZM58.9185 176.48C56.5825 176.48 54.5025 176.08 52.6785 175.28C50.8545 174.448 49.3185 173.248 48.0705 171.68L51.8145 167.936C52.4865 168.96 53.4305 169.776 54.6465 170.384C55.8945 170.992 57.2865 171.296 58.8225 171.296C60.2305 171.296 61.4625 171.04 62.5185 170.528C63.5745 170.016 64.4065 169.28 65.0145 168.32C65.6225 167.36 65.9265 166.224 65.9265 164.912C65.9265 163.536 65.6225 162.4 65.0145 161.504C64.4385 160.576 63.6545 159.888 62.6625 159.44C61.7025 158.96 60.6625 158.72 59.5425 158.72C58.2625 158.72 57.1105 158.864 56.0865 159.152C55.0945 159.44 54.1185 159.952 53.1585 160.688L53.3025 157.232C53.8145 156.56 54.4065 156.016 55.0785 155.6C55.7505 155.152 56.5345 154.816 57.4305 154.592C58.3265 154.368 59.3825 154.256 60.5985 154.256C62.9665 154.256 64.9505 154.752 66.5505 155.744C68.1825 156.736 69.4145 158.064 70.2465 159.728C71.0785 161.36 71.4945 163.184 71.4945 165.2C71.4945 167.376 70.9505 169.312 69.8625 171.008C68.8065 172.704 67.3345 174.048 65.4465 175.04C63.5585 176 61.3825 176.48 58.9185 176.48ZM53.1585 160.688L50.1345 157.664L51.6225 142.4H56.6625L54.9345 158.288L53.1585 160.688ZM52.5825 147.344L51.6225 142.4H69.6225V147.344H52.5825ZM86.3708 176.48C84.0668 176.48 82.0668 176.064 80.3708 175.232C78.6748 174.4 77.3468 173.248 76.3867 171.776C75.4588 170.272 74.9948 168.576 74.9948 166.688C74.9948 165.184 75.2828 163.808 75.8588 162.56C76.4668 161.28 77.3308 160.192 78.4508 159.296C79.6028 158.4 80.9628 157.76 82.5308 157.376L82.3868 158.912C81.1068 158.56 80.0188 157.984 79.1228 157.184C78.2588 156.384 77.6028 155.44 77.1548 154.352C76.7068 153.264 76.4828 152.128 76.4828 150.944C76.4828 149.152 76.8988 147.584 77.7308 146.24C78.5948 144.864 79.7788 143.792 81.2828 143.024C82.7868 142.256 84.4828 141.872 86.3708 141.872C88.2908 141.872 89.9868 142.256 91.4588 143.024C92.9628 143.792 94.1308 144.864 94.9628 146.24C95.8268 147.584 96.2588 149.152 96.2588 150.944C96.2588 152.128 96.0348 153.264 95.5868 154.352C95.1388 155.44 94.4828 156.384 93.6188 157.184C92.7548 157.984 91.6668 158.56 90.3548 158.912L90.2108 157.376C91.8108 157.76 93.1708 158.4 94.2908 159.296C95.4108 160.192 96.2588 161.28 96.8348 162.56C97.4428 163.808 97.7468 165.184 97.7468 166.688C97.7468 168.576 97.2828 170.272 96.3548 171.776C95.4268 173.248 94.0988 174.4 92.3708 175.232C90.6748 176.064 88.6748 176.48 86.3708 176.48ZM86.3708 171.488C87.5548 171.488 88.5948 171.248 89.4908 170.768C90.4188 170.288 91.1388 169.632 91.6508 168.8C92.1948 167.968 92.4668 167.024 92.4668 165.968C92.4668 164.88 92.1948 163.936 91.6508 163.136C91.1388 162.304 90.4188 161.648 89.4908 161.168C88.5948 160.688 87.5548 160.448 86.3708 160.448C85.1868 160.448 84.1308 160.688 83.2028 161.168C82.3068 161.648 81.5868 162.304 81.0428 163.136C80.5308 163.936 80.2747 164.88 80.2747 165.968C80.2747 167.024 80.5308 167.968 81.0428 168.8C81.5868 169.632 82.3068 170.288 83.2028 170.768C84.1308 171.248 85.1868 171.488 86.3708 171.488ZM86.3708 156.128C87.7788 156.128 88.9308 155.68 89.8268 154.784C90.7228 153.888 91.1708 152.736 91.1708 151.328C91.1708 149.92 90.7228 148.784 89.8268 147.92C88.9308 147.024 87.7788 146.576 86.3708 146.576C84.9948 146.576 83.8428 147.024 82.9148 147.92C82.0188 148.784 81.5708 149.92 81.5708 151.328C81.5708 152.736 82.0188 153.888 82.9148 154.784C83.8428 155.68 84.9948 156.128 86.3708 156.128Z" fill="white"/>
<defs>
<filter id="filter0_b_2_575" x="-24" y="-24" width="264" height="275" filterUnits="userSpaceOnUse" color-interpolation-filters="sRGB">
<feFlood flood-opacity="0" result="BackgroundImageFix"/>
<feGaussianBlur in="BackgroundImageFix" stdDeviation="12"/>
<feComposite in2="SourceAlpha" operator="in" result="effect1_backgroundBlur_2_575"/>
<feBlend mode="normal" in="SourceGraphic" in2="effect1_backgroundBlur_2_575" result="shape"/>
</filter>
<filter id="filter1_b_2_575" x="143" y="-8" width="74" height="74" filterUnits="userSpaceOnUse" color-interpolation-filters="sRGB">
<feFlood flood-opacity="0" result="BackgroundImageFix"/>
<feGaussianBlur in="BackgroundImageFix" stdDeviation="4"/>
<feComposite in2="SourceAlpha" operator="in" result="effect1_backgroundBlur_2_575"/>
<feBlend mode="normal" in="SourceGraphic" in2="effect1_backgroundBlur_2_575" result="shape"/>
</filter>
</defs>
</svg>
