<?xml version="1.0" standalone="no"?>
<!DOCTYPE svg PUBLIC "-//W3C//DTD SVG 20010904//EN"
 "http://www.w3.org/TR/2001/REC-SVG-20010904/DTD/svg10.dtd">
<svg version="1.0" xmlns="http://www.w3.org/2000/svg"
 width="1200.000000pt" height="1200.000000pt" viewBox="0 0 1200.000000 1200.000000"
 preserveAspectRatio="xMidYMid meet">

<g transform="translate(0.000000,1200.000000) scale(0.100000,-0.100000)"
fill="#fff" stroke="none">
<path d="M2690 9883 c-51 -19 -83 -90 -60 -134 12 -21 2 -33 -161 -195 l-174
-173 -41 6 c-38 5 -44 3 -65 -26 l-23 -31 -496 0 -496 0 -19 42 c-25 53 -61
79 -118 85 -86 10 -158 -54 -159 -141 -3 -148 194 -201 272 -74 11 18 20 41
20 51 0 16 31 17 505 17 437 0 505 -2 505 -15 0 -19 31 -35 69 -35 39 0 66 37
58 78 -5 26 9 44 166 200 l172 172 41 -16 c36 -14 45 -14 76 -1 23 10 40 27
52 51 l17 36 461 -2 460 -1 10 -27 c13 -38 52 -55 90 -39 29 12 31 11 199
-157 119 -119 167 -173 163 -184 -4 -8 -9 -30 -12 -47 -3 -27 2 -39 32 -69 33
-33 40 -36 79 -31 43 6 87 43 87 73 0 8 8 14 18 14 9 0 233 0 496 0 467 0 480
0 498 -20 24 -26 64 -26 80 0 12 19 24 20 181 20 168 0 169 0 189 -25 22 -28
72 -34 101 -12 46 35 16 117 -44 117 -28 0 -69 -30 -69 -50 0 -6 -64 -10 -173
-10 -161 0 -173 1 -185 20 -7 11 -23 20 -37 20 -14 0 -33 -9 -42 -20 -17 -20
-30 -20 -515 -20 -447 0 -498 2 -498 16 0 8 -14 29 -30 46 -26 26 -36 29 -73
26 -23 -3 -47 -6 -53 -9 -6 -2 -88 70 -183 160 -163 156 -171 166 -171 202 0
66 -68 92 -116 44 l-25 -25 -459 0 -460 0 -15 35 c-19 47 -79 75 -125 58z m93
-44 c9 -12 17 -27 17 -35 0 -21 -23 -17 -38 6 -23 38 -82 20 -82 -26 0 -29
-25 -51 -34 -28 -12 32 -5 56 24 86 26 25 36 29 63 24 18 -3 40 -16 50 -27z
m17 -70 c0 -42 -61 -76 -106 -59 -37 15 -24 36 19 32 28 -3 39 1 49 17 13 22
38 29 38 10z m-1720 -354 c25 -13 60 -60 60 -80 0 -15 -46 -2 -66 21 -32 33
-79 30 -107 -7 -32 -44 -1 -99 55 -99 33 0 68 24 68 47 0 7 11 13 25 13 29 0
31 -10 10 -50 -21 -41 -53 -60 -101 -60 -101 0 -154 118 -87 193 35 38 94 47
143 22z m3277 -37 c25 -24 30 -48 10 -48 -7 0 -21 9 -30 21 -10 12 -27 19 -40
17 -31 -4 -54 11 -36 23 25 16 72 9 96 -13z m-101 -34 c1 -10 2 -27 3 -36 1
-10 11 -22 22 -29 18 -9 27 -7 50 10 33 25 49 27 49 7 0 -19 -48 -56 -72 -56
-61 0 -103 59 -82 115 8 21 29 14 30 -11z"/>
<path d="M196 9650 c-39 -12 -83 -56 -97 -97 -10 -31 -14 -33 -55 -33 -24 0
-44 -4 -44 -10 0 -5 20 -10 44 -10 41 0 45 -2 55 -33 30 -90 140 -130 220 -80
23 15 27 12 177 -138 136 -136 154 -158 154 -186 0 -67 69 -95 116 -48 l25 25
694 0 695 0 15 -37 c22 -51 40 -70 90 -88 139 -54 259 124 156 233 -72 78
-213 50 -246 -49 l-12 -34 -697 -3 -696 -2 -11 24 c-16 34 -60 51 -89 36 -21
-11 -33 -1 -176 141 l-154 154 15 43 c10 28 13 57 9 79 -9 47 -57 100 -102
113 -42 11 -47 11 -86 0z m112 -46 c38 -25 56 -80 43 -126 -13 -42 -16 -44
-37 -24 -9 9 -12 25 -8 45 5 23 1 35 -19 55 -34 34 -62 33 -99 -4 -27 -27 -68
-41 -68 -22 0 4 9 22 20 40 36 59 109 75 168 36z m-121 -135 c24 -28 30 -30
68 -25 31 5 45 3 55 -9 11 -13 7 -17 -26 -31 -63 -26 -139 9 -159 74 -10 34
31 29 62 -9z m2231 -344 c25 -27 32 -44 32 -74 0 -70 -78 -132 -144 -115 -34
8 -86 60 -86 85 0 14 7 19 25 19 15 0 25 -6 25 -15 0 -22 46 -48 74 -41 56 14
75 77 36 116 -29 29 -67 25 -100 -10 -48 -52 -81 -31 -43 27 41 62 127 66 181
8z"/>
<path d="M8564 9421 c-12 -5 -31 -22 -44 -38 -18 -23 -21 -36 -16 -77 l5 -50
-171 -167 c-161 -157 -174 -167 -203 -162 -38 6 -71 -9 -80 -37 -6 -20 -15
-20 -506 -20 l-499 0 -14 33 c-24 57 -84 97 -144 97 -40 0 -103 -41 -123 -80
-62 -116 51 -247 177 -204 45 15 89 63 98 105 l6 29 495 0 496 0 23 -27 c47
-55 135 -18 122 52 -6 29 3 40 164 201 94 93 172 170 174 172 2 1 16 -4 32
-13 37 -19 48 -19 90 1 22 11 38 28 46 50 l12 34 462 0 462 0 6 -25 c4 -14 18
-32 32 -42 22 -14 31 -15 61 -4 l36 13 168 -168 c139 -138 166 -171 158 -185
-12 -23 -12 -76 1 -100 13 -22 61 -49 90 -49 35 0 76 27 90 60 l12 30 497 0
c485 0 496 0 509 -20 8 -13 23 -20 42 -20 19 0 34 7 42 20 12 19 24 20 185 20
150 0 173 -2 173 -16 0 -24 65 -47 93 -33 30 16 37 28 37 65 0 38 -27 64 -67
64 -30 0 -63 -26 -63 -48 0 -9 -48 -12 -173 -12 -161 0 -175 1 -192 20 -10 11
-26 20 -37 20 -10 0 -27 -9 -38 -20 -19 -19 -33 -20 -514 -20 l-494 0 -12 30
c-7 17 -22 37 -34 45 -24 18 -79 19 -108 4 -19 -10 -37 6 -189 157 -149 149
-169 173 -169 201 0 38 -32 73 -67 73 -13 0 -35 -11 -49 -25 l-25 -25 -464 0
c-405 0 -465 2 -465 15 0 25 -53 75 -85 80 -16 2 -40 0 -51 -4z m94 -44 c12
-11 22 -26 22 -34 0 -20 -28 -15 -40 7 -7 13 -21 20 -40 20 -32 0 -40 -9 -49
-52 -8 -40 -25 -40 -29 0 -2 22 3 41 15 54 37 42 79 43 121 5z m22 -70 c0 -20
-37 -56 -64 -63 -28 -7 -69 12 -63 29 2 7 18 11 40 9 28 -3 38 1 47 17 12 23
40 28 40 8z m-1708 -364 c11 -10 26 -30 34 -45 14 -26 13 -28 -7 -28 -12 0
-32 11 -45 25 -58 63 -153 -1 -113 -76 24 -47 99 -43 121 6 7 16 19 25 35 25
27 0 27 -1 9 -45 -38 -90 -185 -84 -216 10 -7 20 -9 46 -6 59 8 31 44 76 70
87 31 13 94 4 118 -18z m3263 -28 c14 -13 25 -29 25 -35 0 -18 -35 -11 -48 11
-11 16 -20 20 -42 15 -32 -6 -51 11 -29 25 26 17 69 9 94 -16z m-102 -49 c-7
-33 36 -63 66 -46 12 6 21 15 21 20 0 6 9 10 20 10 27 0 25 -16 -5 -45 -50
-51 -135 -15 -135 58 0 18 3 37 7 40 12 13 30 -13 26 -37z"/>
<path d="M6073 9189 c-41 -12 -90 -61 -98 -99 l-7 -30 -452 0 -452 0 -22 25
c-45 52 -129 17 -119 -48 5 -30 -4 -42 -140 -178 l-146 -147 -41 19 c-52 23
-71 23 -123 -1 -45 -20 -83 -69 -83 -107 l0 -23 -500 0 c-327 0 -500 3 -500
10 0 6 -9 19 -20 30 -41 41 -120 12 -120 -45 0 -61 81 -87 124 -40 l23 25 496
0 495 0 6 -24 c24 -95 163 -134 240 -67 45 39 61 129 31 181 -14 24 -11 28
132 172 132 132 148 145 170 137 31 -12 71 5 85 36 l11 25 454 0 c425 0 453
-1 453 -17 0 -36 40 -84 86 -105 49 -21 98 -19 138 7 20 13 31 4 179 -140 134
-132 157 -158 152 -178 -4 -15 1 -32 15 -50 28 -35 72 -36 104 -2 l23 25 696
0 695 0 11 -32 c38 -109 174 -139 249 -54 37 42 47 82 33 133 -37 137 -237
142 -282 6 l-11 -33 -699 0 c-579 0 -699 2 -699 13 0 30 -38 50 -81 44 l-42
-6 -153 151 -153 151 14 28 c22 41 19 106 -6 146 -33 53 -103 79 -166 62z m81
-33 c64 -27 95 -101 65 -157 -16 -30 -39 -5 -39 42 0 41 -27 79 -55 79 -26 0
-65 -23 -70 -42 -7 -21 -55 -25 -55 -4 0 22 41 67 74 82 39 17 40 17 80 0z
m-99 -136 c9 -28 42 -43 80 -36 23 5 36 2 45 -10 16 -19 3 -30 -47 -40 -56
-11 -133 44 -133 96 0 19 48 11 55 -10z m-1459 -321 c24 -20 -2 -41 -42 -33
-41 7 -84 -16 -84 -46 0 -15 -7 -20 -25 -20 -54 0 -15 79 55 112 20 10 78 2
96 -13z m3659 -3 c39 -16 75 -68 75 -106 0 -38 -36 -88 -75 -107 -32 -15 -40
-16 -78 -3 -37 14 -87 65 -87 91 0 20 44 7 70 -21 15 -16 38 -30 49 -30 28 0
71 43 71 70 0 27 -43 70 -71 70 -11 0 -34 -13 -49 -30 -25 -27 -70 -41 -70
-22 0 21 45 75 73 87 41 18 50 18 92 1z m-3605 -93 c0 -99 -112 -156 -186 -95
-20 17 -44 53 -44 66 0 16 46 3 66 -19 45 -49 118 -17 113 50 -2 18 3 40 11
50 13 16 15 16 27 -1 7 -10 13 -33 13 -51z"/>
<path d="M1679 8849 c-15 -15 -19 -29 -15 -47 5 -24 -13 -45 -180 -208 l-186
-181 -36 19 c-21 10 -45 15 -57 12 -30 -9 -65 -45 -65 -66 0 -17 -16 -18 -293
-18 l-293 0 -39 40 c-22 22 -40 50 -40 61 0 12 -9 27 -20 34 -17 11 -25 10
-55 -6 -19 -10 -30 -19 -24 -19 6 0 16 -12 23 -26 10 -23 16 -25 44 -20 28 5
38 1 67 -29 l34 -35 -213 0 -213 0 -20 25 c-23 29 -58 32 -81 7 -20 -22 -22
-63 -5 -80 26 -26 98 -4 98 29 0 5 92 9 222 9 l222 0 62 -61 c58 -58 61 -63
57 -99 -5 -33 -2 -40 22 -56 33 -21 75 -10 90 24 l10 22 306 0 c260 0 308 -2
319 -15 7 -8 18 -15 25 -15 7 0 18 7 25 15 10 12 36 15 116 15 60 0 104 -4
104 -10 0 -5 9 -14 20 -20 44 -24 83 38 45 70 -12 10 -21 10 -40 2 -14 -7 -25
-16 -25 -22 0 -6 -42 -10 -110 -10 -67 0 -110 4 -110 10 0 6 -11 10 -24 10
-14 0 -28 -4 -31 -10 -4 -6 -120 -10 -314 -10 -300 0 -309 1 -314 20 -6 24
-50 42 -82 34 -19 -5 -34 4 -74 41 -28 26 -51 52 -51 56 0 5 126 9 280 9 226
0 280 -3 280 -13 0 -39 75 -70 125 -51 22 9 48 62 41 88 -4 18 27 54 179 206
182 182 186 185 228 185 34 0 44 4 52 23 l10 22 501 0 501 0 11 -25 c13 -27
55 -43 75 -27 9 7 59 -36 190 -162 l178 -171 -7 -45 c-5 -37 -2 -50 16 -72 29
-38 90 -39 125 -3 14 13 25 29 25 35 0 7 230 10 734 10 727 0 735 0 741 -20 4
-11 20 -27 36 -36 25 -12 34 -13 57 -2 34 17 50 58 34 92 -21 47 -97 47 -122
1 l-13 -25 -734 0 c-613 0 -733 2 -733 14 0 24 -39 63 -67 69 -16 3 -40 0 -54
-7 -26 -13 -30 -10 -203 163 -151 151 -176 181 -176 207 0 16 -5 35 -12 42
-19 19 -66 14 -85 -8 -17 -20 -30 -20 -520 -20 -303 0 -503 4 -503 9 0 16 -31
41 -51 41 -10 0 -28 -9 -40 -21z m-415 -434 c16 -12 17 -18 8 -27 -9 -9 -15
-9 -24 0 -18 18 -46 14 -58 -8 -14 -27 -40 -27 -33 0 12 44 70 63 107 35z
m2086 -5 c24 -24 26 -50 5 -50 -8 0 -15 7 -15 15 0 16 -42 31 -59 21 -5 -4
-13 -1 -17 5 -3 6 0 15 7 20 24 15 58 10 79 -11z m1600 -10 c11 -6 24 -20 30
-31 15 -26 -11 -69 -41 -69 -29 0 -59 18 -59 35 0 19 8 19 27 0 21 -22 47 -15
51 14 6 37 -26 52 -53 25 -23 -23 -32 -8 -10 16 21 23 29 24 55 10z m-1685
-34 c1 -41 41 -60 65 -31 15 18 43 20 38 3 -2 -6 -16 -21 -30 -31 -23 -17 -31
-18 -56 -8 -34 14 -53 49 -45 80 8 30 28 20 28 -13z m-2000 -53 c-14 -13 -35
-23 -46 -23 -20 0 -59 33 -59 50 0 15 19 12 36 -5 23 -23 40 -18 66 18 23 32
23 32 26 7 3 -17 -4 -31 -23 -47z m-495 -98 c16 -19 5 -34 -12 -17 -20 20 -58
15 -58 -8 0 -26 27 -37 51 -22 38 24 42 1 4 -24 -23 -15 -27 -15 -50 0 -43 28
-26 85 26 86 15 0 32 -7 39 -15z"/>
<path d="M8826 8514 c-11 -10 -16 -29 -14 -50 3 -43 -35 -88 -63 -74 -30 16
-68 11 -81 -10 -13 -20 -24 -20 -514 -20 -438 0 -503 2 -508 15 -3 8 -17 20
-30 27 -37 16 -76 -11 -76 -55 0 -26 -11 -43 -53 -85 -63 -62 -78 -57 -70 22
4 43 1 55 -16 73 -45 47 -111 41 -146 -14 l-20 -32 -278 -1 c-235 0 -281 2
-293 15 -31 31 -82 6 -71 -34 7 -27 -172 -204 -193 -191 -8 5 -31 10 -52 10
-28 0 -42 -7 -62 -31 -14 -17 -26 -37 -26 -45 0 -12 -48 -14 -308 -14 -296 0
-308 1 -320 20 -24 39 -77 15 -70 -32 4 -28 48 -37 68 -14 11 14 54 16 321 16
298 0 308 -1 314 -20 9 -29 54 -60 86 -60 33 0 86 42 91 73 2 12 0 35 -4 52
-7 28 -2 35 79 117 68 68 94 88 115 88 17 0 31 7 38 20 10 19 21 20 290 20
248 0 280 -2 280 -16 0 -8 13 -29 29 -45 31 -31 67 -37 103 -18 16 9 24 7 36
-5 15 -15 6 -26 -110 -143 -119 -119 -128 -126 -145 -111 -41 37 -108 23 -129
-27 l-14 -35 -506 0 -507 0 -23 25 c-35 37 -69 33 -93 -13 -10 -19 -10 -28 4
-48 21 -32 64 -32 95 1 l23 24 503 0 504 0 15 -28 c25 -49 89 -58 135 -19 20
17 24 32 21 74 -2 14 37 59 126 147 l128 126 77 -76 c42 -42 75 -80 72 -85 -3
-4 0 -17 6 -28 13 -24 52 -27 70 -5 11 13 73 15 446 15 385 0 434 -2 434 -15
0 -32 47 -65 90 -65 109 0 123 149 17 175 -35 9 -87 -20 -100 -56 l-11 -29
-431 0 c-426 0 -430 0 -443 21 -10 16 -21 20 -42 17 -25 -4 -39 6 -102 69
l-72 73 53 54 c44 45 58 53 75 46 28 -10 67 5 73 30 5 20 14 20 507 20 l501 0
13 -27 c11 -25 9 -30 -25 -65 -27 -28 -42 -36 -59 -32 -15 4 -29 -1 -43 -15
-20 -20 -30 -21 -326 -21 l-305 0 -10 24 c-18 48 -76 69 -123 44 -34 -18 -46
-39 -47 -81 0 -82 91 -117 151 -58 16 16 29 37 29 45 0 14 34 16 308 16 295 0
308 -1 325 -20 9 -11 21 -20 27 -20 19 0 50 39 43 55 -7 20 63 95 90 95 10 0
26 4 36 9 14 8 48 -21 195 -168 171 -171 177 -178 167 -205 -8 -20 -7 -36 3
-61 26 -62 120 -64 152 -4 l15 29 429 0 c237 0 430 -4 430 -8 0 -4 -15 -23
-34 -41 -33 -32 -35 -33 -70 -20 -30 11 -41 11 -69 -3 -20 -10 -39 -29 -47
-47 l-12 -31 -309 0 c-192 0 -309 4 -309 10 0 5 -9 14 -20 20 -27 15 -60 -4
-60 -33 0 -43 44 -63 70 -32 18 22 640 23 640 1 0 -23 50 -56 85 -56 38 0 82
32 87 63 2 12 0 37 -5 56 -8 32 -6 36 39 78 l48 43 286 0 285 0 10 -22 c6 -13
22 -29 38 -36 60 -29 120 43 80 97 -33 43 -94 41 -115 -4 l-11 -25 -281 0
-280 0 34 35 c23 23 43 35 62 35 17 0 31 7 38 20 10 19 21 20 288 20 l278 0
17 -34 c21 -45 73 -64 116 -43 l29 14 96 -96 c63 -63 96 -104 96 -118 0 -33
35 -48 65 -29 21 14 72 16 365 16 220 0 340 4 340 10 0 6 -120 10 -340 10
-328 0 -341 1 -360 20 -13 13 -28 18 -43 15 -18 -5 -39 12 -115 88 -81 82 -92
96 -84 116 22 60 -21 125 -83 125 -36 0 -80 -31 -91 -66 -5 -17 -22 -18 -283
-18 -235 0 -280 2 -291 15 -18 22 -57 19 -70 -5 -6 -11 -8 -25 -4 -31 3 -6
-13 -31 -37 -55 l-43 -44 -441 0 -441 0 -17 35 c-19 40 -65 58 -110 42 -27 -9
-35 -3 -190 149 -89 88 -167 164 -174 171 -7 6 -13 27 -13 45 0 46 32 72 89
73 35 0 48 5 63 26 18 24 19 30 7 55 -11 23 -22 30 -50 32 -24 2 -42 -3 -53
-14z m75 -4 c37 -20 14 -90 -29 -90 -20 0 -52 34 -52 54 0 19 27 46 46 46 9 0
24 -5 35 -10z m-1523 -156 c16 -11 22 -25 22 -55 0 -50 -23 -49 -30 2 -4 28
-10 35 -31 37 -14 2 -31 -4 -39 -12 -14 -18 -40 -21 -40 -6 0 20 41 50 68 50
15 0 38 -7 50 -16z m-80 -74 c8 -13 23 -20 41 -20 34 0 49 -15 25 -24 -45 -17
-104 11 -104 49 0 22 23 18 38 -5z m569 -52 c13 -12 23 -25 23 -30 0 -13 -22
-9 -41 8 -12 11 -27 14 -44 10 -22 -6 -26 -11 -23 -39 2 -26 8 -33 30 -35 19
-2 31 3 40 17 14 23 38 28 38 8 0 -26 -40 -57 -74 -57 -41 0 -69 29 -69 72 0
61 74 89 120 46z m-1472 -153 c0 -5 -17 -11 -37 -13 -26 -2 -39 -9 -43 -23 -7
-22 -35 -26 -35 -4 0 30 39 56 78 53 20 -2 37 -7 37 -13z m2279 -6 c19 -15 26
-30 26 -54 0 -36 -36 -75 -70 -75 -23 0 -70 38 -70 56 0 8 7 14 15 14 8 0 15
-4 15 -10 0 -5 9 -14 20 -20 27 -15 60 4 60 33 0 46 -49 64 -72 27 -15 -23
-38 -27 -38 -6 0 18 47 56 70 56 10 0 29 -9 44 -21z m2337 8 c25 -19 41 -56
34 -78 -8 -24 -31 -19 -27 6 4 20 -25 55 -45 55 -7 0 -21 -9 -30 -20 -19 -21
-43 -27 -43 -10 0 6 11 22 25 35 26 27 61 32 86 12z m-4589 -34 c2 -10 0 -30
-5 -46 -17 -52 -78 -63 -117 -22 -36 38 -15 47 33 13 21 -16 50 -1 55 28 8 46
27 61 34 27z m4521 -54 c13 -15 25 -19 42 -15 13 3 27 1 30 -5 9 -14 4 -18
-33 -25 -25 -5 -36 -1 -56 19 -14 15 -26 31 -26 37 0 17 25 11 43 -11z m-3804
-35 c16 -12 20 -19 12 -27 -8 -8 -14 -8 -23 1 -18 18 -46 14 -60 -8 -13 -21
-38 -27 -38 -10 0 18 48 60 67 60 10 0 29 -7 42 -16z m2086 -9 c14 -13 25 -29
25 -35 0 -18 -25 -11 -38 11 -10 15 -21 20 -38 16 -28 -5 -43 11 -23 24 24 15
49 10 74 -16z m1613 -11 c28 -20 30 -69 3 -84 -31 -16 -59 -12 -75 12 -20 28
-12 37 12 15 10 -10 26 -17 35 -17 17 0 32 34 22 50 -9 14 -52 13 -57 -1 -2
-7 -10 -10 -18 -7 -10 3 -9 9 8 26 26 26 40 27 70 6z m-1698 -28 c0 -42 44
-62 70 -31 7 8 19 15 27 15 19 0 0 -36 -28 -51 -47 -25 -108 24 -95 76 8 30
26 24 26 -9z m-1970 -6 c0 -26 -43 -70 -68 -70 -29 0 -76 40 -63 53 7 7 16 5
29 -6 28 -25 51 -21 70 13 20 35 32 38 32 10z m2859 -99 c21 -13 3 -32 -24
-25 -17 4 -29 0 -42 -15 -18 -22 -43 -28 -43 -11 0 6 11 22 25 35 25 25 59 32
84 16z m37 -46 c8 -31 -17 -72 -52 -85 -29 -11 -64 2 -82 31 -10 16 -9 19 7
19 11 0 23 -4 26 -10 11 -18 54 -11 65 10 6 11 8 25 5 30 -7 12 2 30 15 30 5
0 12 -11 16 -25z"/>
<path d="M8847 8493 c-13 -12 -7 -41 9 -47 16 -6 54 9 54 22 0 23 -47 42 -63
25z"/>
<path d="M9520 8489 c-19 -10 -30 -19 -24 -19 6 0 16 -12 23 -26 10 -23 16
-26 43 -20 30 6 38 0 134 -95 99 -99 102 -102 97 -139 -5 -33 -2 -40 22 -56
33 -21 75 -10 90 24 l10 22 306 0 c260 0 308 -2 319 -15 7 -8 19 -15 27 -15 7
0 16 7 19 15 5 12 27 15 115 15 63 0 109 -4 109 -10 0 -5 9 -14 20 -20 44 -24
83 38 45 70 -12 10 -21 10 -40 2 -14 -7 -25 -16 -25 -22 0 -6 -42 -10 -110
-10 -67 0 -110 4 -110 10 0 6 -11 10 -24 10 -14 0 -28 -4 -31 -10 -4 -6 -120
-10 -314 -10 l-308 0 -11 24 c-12 27 -54 41 -80 27 -16 -8 -35 7 -120 92 -60
61 -102 112 -104 126 -2 13 -12 29 -23 36 -17 11 -26 10 -55 -6z m370 -274
c16 -19 5 -34 -12 -17 -20 20 -58 15 -58 -8 0 -26 27 -37 51 -22 38 24 42 1 4
-24 -23 -15 -27 -15 -50 0 -43 28 -26 85 26 86 15 0 32 -7 39 -15z"/>
<path d="M93 8473 c9 -2 23 -2 30 0 6 3 -1 5 -18 5 -16 0 -22 -2 -12 -5z"/>
<path d="M198 8473 c29 -2 74 -2 100 0 26 2 2 3 -53 3 -55 0 -76 -1 -47 -3z"/>
<path d="M9083 8473 c70 -2 184 -2 255 0 70 1 12 3 -128 3 -140 0 -198 -2
-127 -3z"/>
<path d="M3349 8229 c-15 -15 -20 -29 -16 -52 4 -29 -4 -41 -96 -134 -87 -89
-106 -103 -134 -103 -22 0 -36 -6 -43 -20 -10 -19 -21 -20 -320 -20 -254 0
-310 2 -310 14 0 7 -11 25 -25 40 -18 20 -34 26 -65 26 -81 0 -119 -85 -66
-147 34 -39 98 -39 132 0 13 16 24 35 24 43 0 22 625 21 634 -1 8 -22 53 -19
66 6 7 11 9 26 7 33 -3 7 43 61 103 121 98 98 109 106 129 95 28 -14 57 -5 77
26 l16 24 284 0 c276 0 284 -1 294 -21 8 -15 19 -20 41 -17 25 2 44 -11 133
-95 101 -96 104 -99 99 -135 -4 -29 0 -41 15 -55 28 -26 84 -19 97 11 l10 22
305 0 c252 -1 308 -3 324 -15 17 -13 22 -13 42 0 14 9 55 15 111 18 l88 3 -91
2 c-67 1 -95 6 -104 17 -7 8 -18 15 -25 15 -7 0 -18 -7 -25 -15 -11 -13 -58
-15 -316 -15 l-304 0 -12 25 c-12 28 -46 41 -81 31 -18 -4 -40 13 -124 97 -67
66 -103 109 -103 123 0 12 -7 27 -15 34 -16 13 -65 6 -65 -10 0 -6 -106 -10
-288 -10 l-288 0 -22 30 c-27 36 -63 39 -93 9z m75 -5 c18 -18 21 -34 6 -34
-5 0 -10 4 -10 9 0 13 -25 20 -39 12 -6 -4 -13 -17 -16 -29 -3 -17 1 -22 19
-22 12 0 27 5 34 12 17 17 28 2 12 -17 -26 -31 -89 -9 -90 33 0 16 37 52 54
52 8 0 22 -7 30 -16z m-1031 -282 c19 -16 23 -42 7 -42 -5 0 -19 9 -30 20 -24
24 -63 14 -68 -19 -7 -46 46 -70 70 -31 15 23 38 27 38 6 0 -18 -47 -56 -70
-56 -33 0 -70 39 -70 74 0 65 71 93 123 48z m2011 -8 c24 -24 19 -36 -8 -19
-13 9 -28 15 -32 14 -18 -3 -25 1 -19 11 9 15 42 12 59 -6z m-60 -39 c7 -27
34 -33 54 -13 17 17 28 2 12 -17 -27 -32 -90 -8 -90 36 0 27 17 23 24 -6z"/>
<path d="M1820 8097 c-14 -7 -34 -27 -45 -44 l-20 -32 -276 -1 c-234 0 -278 2
-289 15 -28 33 -90 3 -75 -37 3 -7 -33 -51 -84 -101 l-89 -89 -35 13 c-47 17
-93 -2 -115 -48 l-16 -33 -308 0 c-191 0 -308 4 -308 10 0 5 -9 14 -20 20 -27
15 -60 -4 -60 -33 0 -43 44 -63 70 -32 18 22 640 23 640 1 0 -40 86 -70 132
-45 32 17 50 71 36 109 -11 32 -10 33 78 116 66 62 96 84 116 84 17 0 33 8 40
20 12 19 24 20 291 20 l277 0 9 -22 c20 -52 76 -77 120 -55 l29 14 96 -96 c63
-63 96 -104 96 -118 0 -33 35 -48 65 -29 21 14 80 16 452 16 l428 -1 20 -32
c50 -79 165 -49 165 44 0 48 -39 89 -85 89 -36 0 -80 -30 -90 -60 -6 -20 -17
-20 -436 -20 -419 0 -429 0 -450 21 -13 13 -27 18 -41 13 -16 -5 -38 12 -113
86 l-92 91 5 52 c3 45 1 55 -20 74 -31 29 -67 36 -98 20z m69 -22 c30 -15 46
-52 35 -80 -8 -21 -30 -13 -26 10 4 20 -25 55 -45 55 -7 0 -21 -9 -30 -20 -19
-21 -43 -27 -43 -10 0 17 47 60 65 60 9 0 29 -7 44 -15z m-66 -86 c13 -15 25
-19 42 -15 13 3 27 1 30 -5 9 -14 4 -18 -33 -25 -25 -5 -36 -1 -56 19 -14 15
-26 31 -26 37 0 17 25 11 43 -11z m-914 -188 c21 -13 3 -32 -24 -25 -17 4 -29
0 -42 -15 -18 -22 -43 -28 -43 -11 0 6 11 22 25 35 25 25 59 32 84 16z m2296
-21 c42 -47 8 -120 -56 -120 -28 0 -69 30 -69 50 0 15 26 12 40 -6 8 -8 25
-14 39 -12 22 3 26 8 26 38 0 30 -4 35 -26 38 -14 2 -31 -4 -39 -12 -14 -18
-40 -21 -40 -6 0 6 9 19 20 30 26 26 81 26 105 0z m-2259 -26 c14 -55 -47
-107 -97 -84 -14 6 -30 20 -37 31 -10 16 -9 19 7 19 11 0 23 -4 26 -10 9 -15
51 -12 65 5 7 8 9 22 6 31 -3 9 -4 20 0 25 10 17 24 9 30 -17z"/>
<path d="M11395 7955 c-48 -47 -21 -135 44 -150 40 -8 90 19 104 56 l11 29
226 3 225 2 -227 3 c-184 2 -228 5 -228 16 0 7 -11 25 -25 40 -33 36 -95 37
-130 1z m118 -13 c21 -19 22 -42 2 -42 -8 0 -15 4 -15 10 0 5 -9 14 -20 20
-27 15 -60 -4 -60 -33 0 -46 49 -64 72 -27 15 23 38 27 38 6 0 -18 -47 -56
-70 -56 -33 0 -70 39 -70 74 0 65 71 93 123 48z"/>
<path d="M5334 7917 l-20 -23 22 -17 c30 -23 61 -21 74 3 27 50 -38 81 -76 37z"/>
<path d="M8221 7886 c-22 -26 10 -63 43 -50 35 13 24 64 -14 64 -10 0 -23 -6
-29 -14z"/>
<path d="M8913 7889 c-23 -23 11 -67 45 -57 5 2 59 -43 120 -100 103 -95 111
-106 105 -133 -3 -17 0 -35 7 -44 18 -22 67 -19 82 5 13 20 24 20 468 20 444
0 455 0 468 -20 19 -31 72 -20 72 14 0 5 -6 2 -13 -8 -15 -21 -48 -18 -55 4
-4 13 -3 13 11 2 18 -16 37 -8 37 15 0 11 -7 14 -25 11 -28 -6 -34 6 -9 16 21
8 20 8 38 -10 9 -8 16 -11 16 -5 0 19 -38 33 -60 21 -11 -6 -20 -15 -20 -20 0
-6 -170 -10 -458 -10 l-457 0 -10 23 c-8 17 -18 22 -46 22 -33 0 -48 11 -143
102 -58 57 -106 111 -106 121 0 35 -43 55 -67 31z m347 -274 c7 -9 9 -19 5
-23 -4 -4 -10 -1 -12 6 -8 20 -43 14 -43 -7 0 -26 17 -36 36 -20 16 13 30 6
19 -10 -16 -26 -75 -5 -75 26 0 37 47 55 70 28z"/>
<path d="M8149 7773 c-13 -16 -12 -17 4 -4 9 7 17 15 17 17 0 8 -8 3 -21 -13z"/>
<path d="M20 7676 c0 -5 11 -17 25 -28 19 -15 23 -25 18 -48 -3 -18 0 -36 7
-45 18 -22 67 -19 82 5 13 20 24 20 468 20 444 0 455 0 468 -20 19 -31 72 -20
72 14 0 5 -6 2 -13 -8 -15 -21 -48 -18 -55 4 -3 12 -2 12 8 3 16 -14 40 -6 40
14 0 11 -7 14 -25 11 -28 -6 -34 6 -9 16 10 4 25 -1 35 -10 11 -10 19 -12 19
-6 0 20 -38 34 -60 22 -11 -6 -20 -15 -20 -20 0 -6 -170 -10 -458 -10 l-457 0
-10 23 c-8 17 -18 22 -47 22 -25 0 -45 8 -62 24 -14 14 -26 21 -26 17z m120
-61 c7 -9 9 -19 5 -23 -4 -4 -10 -1 -12 6 -8 20 -43 14 -43 -7 0 -26 17 -36
36 -20 16 13 30 6 19 -10 -16 -26 -75 -5 -75 26 0 37 47 55 70 28z"/>
<path d="M8006 7641 c-14 -16 -22 -18 -36 -9 -25 16 -65 2 -78 -26 -14 -32 9
-66 47 -66 34 0 51 16 51 49 0 14 10 35 22 48 12 13 19 23 16 23 -3 0 -13 -9
-22 -19z m-36 -30 c16 -32 12 -50 -15 -57 -24 -6 -62 12 -50 24 2 3 12 -1 20
-8 13 -11 19 -11 32 2 8 9 12 21 9 27 -10 15 -43 14 -49 -1 -2 -7 -8 -10 -12
-6 -11 11 14 38 36 38 10 0 23 -9 29 -19z"/>
<path d="M2753 7613 c-7 -2 -13 -14 -13 -26 0 -15 -38 -60 -113 -135 -103
-103 -115 -112 -138 -104 -31 12 -65 -1 -74 -27 -6 -21 -12 -21 -325 -21 -273
0 -319 2 -324 15 -9 25 -40 17 -76 -20 l-35 -34 -453 -1 c-388 0 -453 2 -458
15 -14 35 -84 19 -84 -20 0 -39 70 -55 84 -20 5 13 70 15 457 15 l451 0 21
-26 c16 -21 26 -25 52 -21 30 5 39 -2 137 -101 63 -64 108 -118 112 -134 7
-32 36 -38 57 -12 18 22 -1 50 -33 47 -19 -1 -49 23 -130 105 -102 104 -105
108 -101 145 l5 37 318 0 c304 0 318 -1 335 -20 10 -11 29 -20 41 -20 26 0 60
42 49 61 -5 7 37 56 106 125 90 90 119 114 141 114 36 0 55 32 32 54 -16 17
-21 18 -41 9z m-253 -289 c0 -4 -11 -3 -24 0 -18 4 -28 1 -35 -11 -5 -10 -13
-14 -18 -10 -4 5 3 17 15 28 18 14 28 16 43 9 10 -6 19 -13 19 -16z m10 -22
c0 -19 -39 -44 -59 -37 -30 9 -26 27 4 19 18 -4 27 -1 31 10 6 17 24 22 24 8z
m-1780 -27 c8 -9 9 -15 2 -15 -6 0 -14 5 -17 10 -9 14 -25 3 -25 -17 0 -12 6
-14 28 -8 25 6 26 5 10 -11 -29 -30 -75 9 -48 41 16 19 34 19 50 0z m980 6 c0
-12 -20 -25 -27 -18 -7 7 6 27 18 27 5 0 9 -4 9 -9z m50 -28 c0 -5 -7 -16 -14
-25 -18 -24 -53 -23 -66 2 -11 20 3 30 15 10 10 -16 45 -12 45 5 0 8 5 15 10
15 6 0 10 -3 10 -7z"/>
<path d="M7189 7604 c-9 -11 -10 -20 -2 -32 14 -23 52 -28 59 -8 5 14 45 16
318 18 l311 3 -308 2 c-257 3 -311 6 -324 18 -19 19 -37 19 -54 -1z"/>
<path d="M11873 7613 c-7 -2 -13 -18 -13 -34 0 -24 4 -29 25 -29 33 0 51 33
29 54 -16 17 -21 18 -41 9z"/>
<path d="M3429 7597 c-14 -11 -14 -14 3 -32 11 -11 29 -19 41 -17 16 2 49 -25
129 -105 104 -106 107 -109 100 -143 l-8 -35 -316 -3 c-309 -2 -317 -2 -328
18 -15 27 -75 28 -90 1 -5 -11 -10 -28 -10 -38 0 -27 -222 -245 -242 -238 -14
6 -48 -18 -48 -33 1 -41 63 -42 68 -1 4 37 227 258 244 241 20 -20 55 -14 76
13 l20 25 315 0 c271 0 316 -2 321 -15 9 -24 33 -18 71 19 38 37 42 53 23 78
-17 21 -38 27 -64 17 -18 -6 -38 10 -127 99 -67 68 -107 116 -109 132 -3 29
-42 38 -69 17z m361 -277 c7 -13 5 -24 -10 -42 -11 -12 -19 -18 -20 -12 0 5 5
15 12 22 10 10 9 16 -4 28 -18 18 -38 11 -38 -12 0 -8 -4 -14 -10 -14 -17 0
-11 22 11 41 23 20 45 16 59 -11z m-752 -48 c3 -11 0 -12 -16 -3 -16 9 -24 7
-37 -6 -16 -15 -16 -17 1 -26 12 -7 23 -6 37 2 25 16 32 8 12 -13 -24 -24 -54
-20 -67 9 -8 19 -8 28 2 40 15 19 61 16 68 -3z"/>
<path d="M11724 7430 c-81 -82 -92 -90 -115 -82 -31 12 -65 -1 -74 -27 -6 -20
-14 -21 -293 -24 l-287 -2 286 -3 c272 -2 287 -3 304 -22 25 -28 61 -25 81 5
9 13 14 30 11 37 -3 7 39 57 91 111 53 53 94 97 92 97 -3 0 -46 -41 -96 -90z
m-104 -106 c0 -4 -11 -3 -24 0 -18 4 -28 1 -35 -11 -5 -10 -13 -14 -18 -10 -4
5 3 17 15 28 18 14 28 16 43 9 10 -6 19 -13 19 -16z m10 -22 c0 -19 -39 -44
-59 -37 -30 9 -26 27 4 19 18 -4 27 -1 31 10 6 17 24 22 24 8z"/>
<path d="M4726 7319 c-11 -17 -12 -25 -3 -40 7 -11 18 -19 26 -19 11 0 9 4 -5
15 -18 15 -18 15 9 9 20 -5 27 -2 27 9 0 22 -18 31 -35 17 -11 -9 -15 -9 -15
-1 0 18 31 25 51 12 11 -6 19 -7 19 -2 0 10 -24 21 -45 21 -8 0 -21 -10 -29
-21z"/>
<path d="M10832 7318 c-16 -16 -15 -23 4 -42 19 -20 29 -20 48 0 12 12 13 20
6 35 -12 21 -40 25 -58 7z"/>
<path d="M10918 7293 c6 -2 18 -2 25 0 6 3 1 5 -13 5 -14 0 -19 -2 -12 -5z"/>
<path d="M4782 7274 c-7 -8 -8 -14 -3 -14 10 0 25 19 20 25 -2 1 -10 -3 -17
-11z"/>
<path d="M5320 7000 c-26 -26 -25 -45 1 -71 15 -15 29 -20 49 -15 25 5 40 -6
134 -97 72 -69 106 -109 106 -124 0 -33 36 -49 61 -28 25 24 9 55 -29 55 -41
0 -238 199 -234 236 4 30 -23 64 -50 64 -10 0 -27 -9 -38 -20z m58 -6 c12 -8
22 -22 22 -30 0 -22 -17 -17 -23 7 -4 13 -12 20 -24 17 -27 -5 -23 -41 7 -50
23 -6 23 -7 -5 -5 -23 2 -31 7 -33 25 -3 22 13 52 27 52 4 0 17 -7 29 -16z"/>
<path d="M6609 6999 c-12 -12 -19 -29 -16 -39 3 -13 -28 -51 -109 -131 -91
-91 -119 -113 -138 -111 -32 4 -51 -27 -32 -53 18 -25 50 -15 54 16 2 17 40
63 116 138 104 103 115 112 135 101 28 -15 57 -5 78 27 13 20 23 24 50 21 18
-2 33 0 33 4 0 4 -16 8 -36 8 -21 0 -47 8 -61 20 -33 25 -48 25 -74 -1z m55 5
c9 -3 16 -12 16 -20 0 -12 -4 -12 -21 -2 -17 11 -22 10 -35 -6 -10 -15 -14
-16 -14 -5 0 16 19 39 31 39 4 0 14 -3 23 -6z m20 -58 c-8 -21 -40 -26 -61
-10 -17 13 -16 14 8 8 15 -3 30 -1 33 5 10 16 26 13 20 -3z"/>
<path d="M4317 7004 c-15 -15 -6 -24 12 -13 24 16 51 5 51 -21 0 -26 -27 -37
-52 -21 -16 10 -19 10 -16 -1 7 -19 59 -16 72 5 8 12 8 22 0 35 -11 18 -54 28
-67 16z"/>
<path d="M7340 6985 c-10 -12 -10 -18 0 -30 25 -30 78 -7 64 29 -8 20 -47 21
-64 1z"/>
<path d="M4334 6979 c-10 -17 13 -36 27 -22 12 12 4 33 -11 33 -5 0 -12 -5
-16 -11z"/>
<path d="M2255 6885 c-49 -48 -26 -133 41 -149 37 -10 89 17 103 53 l13 31
429 0 c425 0 428 0 440 -21 8 -16 18 -20 39 -17 25 4 41 -8 126 -93 88 -88 95
-98 84 -118 -26 -50 22 -121 82 -121 40 0 65 15 83 50 l16 30 278 0 c235 0
280 -2 291 -15 7 -8 21 -15 31 -15 20 0 50 36 43 54 -6 16 182 201 190 187 4
-6 26 -11 50 -11 46 0 77 24 91 68 l6 22 304 0 c297 0 305 0 315 -21 8 -14 19
-19 37 -17 34 4 52 32 37 55 -15 24 -62 29 -70 9 -5 -14 -44 -16 -319 -16
l-313 0 -6 23 c-5 23 -53 57 -81 57 -59 0 -106 -65 -86 -122 11 -32 11 -33
-76 -120 -68 -68 -94 -88 -115 -88 -17 0 -33 -8 -40 -20 -12 -19 -24 -20 -290
-20 l-278 0 -14 33 c-18 45 -64 64 -114 49 l-37 -12 -92 92 c-60 60 -93 100
-93 114 0 12 -7 27 -15 34 -16 13 -65 6 -65 -10 0 -6 -157 -10 -435 -10 -259
0 -435 4 -435 9 0 5 -12 23 -26 40 -34 41 -92 44 -129 6z m95 0 c17 -9 30 -17
30 -19 0 -3 3 -11 6 -20 4 -11 1 -16 -10 -16 -9 0 -19 6 -22 14 -8 21 -40 26
-63 9 -25 -17 -26 -31 -4 -55 21 -24 38 -23 63 4 15 16 23 19 31 11 16 -16
-33 -63 -66 -63 -28 0 -75 40 -75 64 0 27 22 64 44 74 29 14 33 14 66 -3z
m2288 -11 c23 -16 30 -44 11 -44 -6 0 -17 7 -25 15 -32 32 -80 4 -72 -43 2
-10 -3 -17 -12 -17 -27 0 -24 52 4 80 29 29 62 32 94 9z m26 -62 c8 -13 -23
-52 -51 -63 -16 -6 -31 -5 -44 2 -26 13 -15 29 18 27 17 -2 31 5 42 19 17 24
27 28 35 15z m-999 -227 c14 -13 25 -29 25 -35 0 -18 -29 -11 -41 11 -8 16
-18 20 -40 17 -31 -5 -45 4 -34 22 12 19 65 11 90 -15z m-95 -39 c0 -12 5 -27
12 -34 17 -17 55 -15 66 4 5 9 17 14 26 13 16 -4 16 -7 -4 -32 -18 -23 -29
-28 -58 -25 -45 4 -78 44 -68 83 8 30 26 24 26 -9z"/>
<path d="M3066 6724 c-14 -15 -26 -35 -26 -45 0 -18 -14 -19 -306 -19 -291 0
-307 1 -331 20 -14 11 -29 20 -34 20 -15 0 -39 -32 -39 -53 0 -15 -35 -57
-103 -125 -96 -95 -105 -102 -134 -96 -36 7 -69 -8 -78 -36 -6 -19 -15 -20
-290 -20 l-283 0 -17 26 c-13 21 -22 25 -44 21 -24 -5 -39 6 -129 96 -90 91
-100 105 -95 130 4 21 -1 34 -17 53 -31 32 -56 30 -90 -6 l-28 -30 -305 0
c-262 0 -306 2 -311 15 -3 8 -12 15 -19 15 -8 0 -20 -7 -27 -15 -10 -11 -36
-15 -112 -15 -86 0 -103 3 -128 22 -29 21 -30 21 -50 3 -24 -22 -25 -38 -4
-59 21 -21 41 -20 61 4 15 18 30 20 120 20 57 0 105 -4 108 -10 3 -5 17 -10
30 -10 13 0 27 5 30 10 4 6 118 10 309 10 l304 0 16 -24 c19 -30 49 -41 74
-27 16 8 34 -6 124 -97 60 -61 108 -118 112 -133 8 -34 32 -44 62 -24 19 13
70 15 306 15 l282 0 21 -26 c41 -52 124 -17 111 46 -4 23 9 40 100 131 80 80
110 103 127 101 14 -2 31 6 42 18 17 19 29 20 324 20 l306 0 13 -28 c13 -32
49 -52 88 -52 37 0 84 51 84 90 0 22 -9 41 -29 61 -39 38 -88 40 -125 3z m114
-14 c42 -42 10 -120 -50 -120 -31 0 -70 25 -70 46 0 19 24 18 40 -1 28 -34 87
6 64 43 -16 26 -60 28 -74 3 -14 -26 -30 -27 -30 -2 0 46 84 67 120 31z
m-2039 -32 c11 -21 4 -56 -9 -44 -4 4 -8 12 -8 17 -1 5 -2 14 -3 19 -2 14 -49
12 -54 -2 -2 -7 -8 -9 -13 -5 -14 13 33 46 56 40 11 -3 25 -14 31 -25z m-71
-38 c0 -5 11 -10 25 -10 27 0 34 -14 11 -23 -7 -3 -23 1 -35 9 -22 16 -28 34
-11 34 6 0 10 -4 10 -10z m1029 -229 c9 -6 10 -11 2 -15 -6 -4 -16 -4 -22 -1
-5 4 -19 -1 -30 -11 -17 -15 -19 -15 -19 -1 0 28 42 45 69 28z m17 -66 c-17
-25 -59 -31 -76 -10 -15 19 -5 34 12 17 20 -20 38 -14 49 15 8 22 12 24 19 13
6 -10 4 -22 -4 -35z"/>
<path d="M5899 6601 c-60 -60 -24 -151 60 -151 32 0 44 6 65 31 14 17 26 35
26 40 0 5 175 9 433 9 429 0 432 0 445 -21 10 -16 20 -20 41 -16 24 5 38 -5
120 -87 86 -86 92 -95 85 -122 -11 -40 -6 -65 18 -91 42 -45 116 -36 144 18
l15 29 282 0 c222 -1 286 -4 300 -14 10 -8 27 -12 37 -9 20 5 35 36 25 52 -5
9 170 187 183 185 4 0 20 -4 36 -8 40 -12 94 15 108 54 l10 30 305 0 c303 0
305 0 323 -22 15 -20 21 -21 44 -10 33 15 36 56 5 72 -16 9 -26 8 -45 -5 -26
-17 -41 -17 -616 -15 -18 0 -28 5 -28 14 0 40 -86 70 -132 45 -32 -17 -50 -71
-36 -109 10 -32 9 -33 -78 -121 -71 -72 -92 -87 -110 -83 -16 4 -28 -1 -41
-15 -17 -20 -26 -21 -293 -21 l-275 1 -20 32 c-30 47 -65 61 -108 43 l-34 -14
-97 97 c-63 63 -96 104 -96 118 0 29 -33 47 -60 33 -11 -6 -20 -15 -20 -20 0
-6 -162 -10 -435 -10 -389 0 -435 2 -435 16 0 28 -56 74 -90 74 -22 0 -41 -9
-61 -29z m108 -13 c13 -12 23 -27 23 -35 0 -20 -24 -16 -38 7 -24 39 -77 15
-70 -32 4 -29 56 -39 70 -14 10 18 38 22 38 6 0 -22 -41 -50 -73 -50 -55 0
-87 52 -62 100 24 45 74 54 112 18z m2285 -10 c21 -21 21 -23 4 -26 -10 -2
-23 1 -29 7 -29 29 -86 -4 -71 -42 7 -20 -16 -33 -27 -16 -14 22 -10 44 12 73
27 34 79 36 111 4z m18 -57 c0 -4 -9 -20 -21 -35 -20 -25 -50 -33 -83 -20 -24
9 -9 24 25 24 18 0 33 7 41 20 13 20 38 28 38 11z m-997 -223 c9 -11 17 -24
17 -29 0 -15 -29 -10 -38 8 -6 10 -21 16 -41 15 -38 -1 -50 15 -19 27 30 12
58 5 81 -21z m-98 -42 c1 -42 54 -64 73 -30 5 9 18 14 28 12 17 -3 17 -6 -8
-31 -29 -29 -57 -34 -89 -16 -24 13 -42 55 -33 81 8 27 29 16 29 -16z"/>
<path d="M6705 6435 c-14 -13 -25 -31 -25 -40 0 -13 -37 -15 -314 -15 -270 0
-315 2 -320 15 -13 34 -83 2 -71 -34 3 -11 -28 -49 -103 -124 -98 -98 -111
-107 -133 -99 -31 12 -69 -2 -76 -28 -5 -19 -14 -20 -294 -20 -283 0 -289 0
-300 21 -8 16 -18 20 -42 16 -26 -4 -38 1 -64 29 -18 18 -33 36 -33 39 0 4 94
5 209 3 205 -4 210 -4 228 -27 37 -45 103 -22 103 35 0 23 -33 54 -58 54 -7 0
-24 -11 -38 -25 l-24 -24 -222 -1 -221 -1 -58 57 c-52 52 -57 60 -52 91 7 42
-18 73 -58 73 -27 0 -59 -22 -59 -41 0 -5 -123 -9 -302 -9 -166 0 -298 -3
-295 -7 4 -3 138 -6 297 -5 l291 2 11 -25 c13 -28 45 -40 81 -31 19 4 34 -5
77 -49 l54 -55 -276 0 -276 0 -35 35 c-44 44 -78 46 -118 6 -21 -22 -29 -39
-29 -66 0 -34 -12 -48 -182 -213 -177 -173 -182 -177 -220 -174 -34 3 -40 0
-56 -27 l-17 -30 -495 -1 -495 0 -18 31 c-16 29 -21 31 -56 26 -38 -5 -39 -4
-209 167 l-171 171 6 42 c5 37 2 45 -25 73 -43 42 -76 40 -123 -10 l-37 -39
-727 0 -726 0 -9 24 c-18 46 -76 59 -111 24 -46 -46 7 -135 68 -113 16 5 32
19 38 32 l10 22 737 0 c659 0 738 -2 738 -15 0 -46 82 -81 129 -56 14 8 48
-21 193 -167 149 -150 176 -182 176 -206 -1 -52 55 -73 92 -36 19 19 33 20
520 20 l499 0 25 -25 c31 -30 36 -31 71 -4 21 17 26 28 22 49 -5 24 14 46 178
210 l183 183 26 -16 c51 -34 109 -17 132 39 l14 34 283 0 283 0 39 -40 c21
-22 44 -55 49 -72 9 -25 18 -34 39 -36 18 -2 29 2 33 12 5 14 42 16 293 16
l287 0 22 -30 c41 -55 117 -25 110 43 -3 29 7 42 103 135 80 77 112 102 132
102 16 0 32 8 39 20 12 19 24 20 315 20 l302 0 16 -31 c9 -17 31 -37 51 -45
29 -12 39 -12 68 0 93 39 67 166 -34 166 -30 0 -47 -6 -65 -25z m109 -6 c19
-15 26 -30 26 -54 0 -24 -7 -39 -26 -54 -34 -27 -57 -26 -90 2 -38 33 -23 54
17 25 35 -26 62 -16 67 25 4 33 -28 53 -58 37 -11 -6 -20 -15 -20 -20 0 -6 -7
-10 -15 -10 -8 0 -15 6 -15 14 0 18 47 56 70 56 10 0 29 -9 44 -21z m-2042
-26 c24 -21 23 -45 -2 -68 -16 -15 -26 -17 -48 -9 -15 5 -28 18 -31 29 -3 19
-3 19 16 3 27 -24 63 -24 63 1 0 30 -27 47 -52 32 -26 -16 -39 -3 -14 15 26
18 45 18 68 -3z m-4188 -176 c6 -9 7 -20 2 -24 -4 -4 -12 0 -17 10 -6 9 -21
17 -35 17 -22 0 -25 -4 -22 -27 2 -20 9 -29 26 -31 12 -2 22 1 22 7 0 6 7 11
15 11 18 0 19 -12 3 -28 -17 -17 -64 -15 -82 4 -23 23 -20 50 10 73 28 22 60
17 78 -12z m1626 13 c22 -22 28 -84 8 -78 -7 3 -15 18 -18 34 -4 22 -11 30
-31 32 -14 2 -31 -4 -39 -12 -14 -18 -30 -21 -30 -6 0 19 40 50 65 50 14 0 34
-9 45 -20z m2081 1 c28 -22 18 -41 -11 -23 -33 20 -58 14 -75 -18 -9 -17 -12
-29 -8 -28 4 1 18 -3 30 -10 26 -15 49 -7 56 19 6 23 27 25 27 2 0 -50 -85
-73 -114 -31 -49 70 29 142 95 89z m-2155 -68 c7 -10 23 -18 36 -18 37 0 37
-20 0 -23 -35 -4 -72 19 -72 45 0 19 20 16 36 -4z m3618 -62 c12 -13 15 -27
11 -40 -13 -42 -75 -51 -89 -14 -9 23 1 28 19 9 21 -20 55 -5 55 24 0 23 -38
28 -58 8 -17 -17 -28 -2 -12 17 17 21 53 19 74 -4z"/>
<path d="M3706 6394 c-19 -18 -19 -20 -6 -45 13 -24 52 -25 73 -1 15 16 15 20
1 40 -18 26 -46 28 -68 6z"/>
<path d="M3996 6384 c-7 -18 10 -44 27 -44 6 0 18 7 28 16 15 14 16 18 4 30
-19 19 -51 18 -59 -2z"/>
<path d="M3843 6373 c26 -2 68 -2 95 0 26 2 4 3 -48 3 -52 0 -74 -1 -47 -3z"/>
<path d="M875 6086 c-73 -33 -102 -113 -74 -198 l13 -40 -145 -139 c-137 -131
-146 -138 -177 -132 -26 4 -39 0 -58 -18 -13 -12 -24 -28 -24 -36 0 -10 -41
-13 -205 -13 -130 0 -205 -4 -205 -10 0 -6 74 -10 201 -10 200 0 201 0 231
-25 36 -31 57 -31 93 -3 23 18 26 27 22 58 -5 36 -2 40 140 180 l144 144 28
-17 c36 -21 106 -22 145 -2 36 19 57 47 72 95 l11 35 491 3 491 2 12 -22 c28
-53 76 -62 114 -23 32 31 32 59 0 90 -31 32 -56 31 -93 0 l-30 -25 -495 0
-495 0 -19 37 c-10 20 -30 45 -44 56 -34 25 -105 31 -144 13z m115 -31 c16 -9
37 -29 45 -45 15 -29 15 -30 -10 -30 -14 0 -34 9 -45 20 -47 47 -115 10 -113
-60 1 -22 -4 -43 -12 -50 -30 -25 -50 72 -25 119 15 30 69 61 103 61 15 0 41
-7 57 -15z m56 -109 c8 -20 -20 -70 -50 -90 -30 -19 -95 -21 -119 -3 -15 10
-16 15 -5 30 11 15 19 16 39 8 33 -12 69 5 87 42 14 29 39 36 48 13z"/>
<path d="M3070 5632 c-19 -9 -45 -33 -58 -52 -20 -29 -23 -44 -20 -88 4 -45
10 -59 40 -88 78 -78 203 -55 238 44 l14 42 696 0 696 0 23 -31 c21 -29 27
-31 65 -26 l41 5 154 -148 154 -148 -17 -43 c-41 -102 26 -199 136 -199 59 0
105 30 129 85 l20 45 451 0 451 0 23 -25 c46 -50 114 -19 114 53 0 35 10 47
144 181 l143 143 31 -16 c39 -20 104 -21 142 -1 33 17 66 60 75 98 l7 27 497
0 498 0 11 -25 c22 -48 105 -42 118 10 10 40 -3 71 -35 85 -33 13 -65 2 -89
-31 -12 -17 -40 -18 -508 -17 l-495 1 -16 39 c-18 45 -82 88 -132 88 -53 0
-110 -36 -132 -83 -23 -51 -24 -77 -4 -124 l16 -37 -143 -143 c-140 -141 -143
-142 -179 -137 -29 5 -41 2 -58 -15 -12 -12 -21 -28 -21 -36 0 -13 -57 -15
-454 -15 l-453 0 -17 45 c-31 80 -122 117 -200 80 l-37 -18 -42 39 c-23 21
-93 88 -154 149 -95 92 -113 115 -113 140 0 72 -76 103 -122 50 l-22 -25 -697
0 -696 0 -6 28 c-12 60 -79 112 -144 112 -15 0 -44 -8 -63 -18z m120 -27 c57
-30 82 -95 35 -95 -14 0 -25 5 -25 12 0 42 -76 63 -112 31 -22 -20 -23 -70 -1
-95 24 -27 77 -24 101 7 22 28 62 34 62 9 0 -9 -15 -31 -34 -50 -29 -29 -41
-34 -81 -34 -40 0 -52 5 -81 34 -28 28 -34 42 -34 76 0 52 13 76 53 100 38 24
78 25 117 5z m3703 -33 c19 -19 28 -36 24 -46 -9 -22 -21 -20 -55 9 -37 31
-75 32 -102 3 -16 -17 -20 -31 -17 -55 4 -22 0 -36 -13 -48 -17 -15 -19 -14
-30 19 -15 47 -6 87 28 118 36 33 49 38 96 33 27 -2 49 -13 69 -33z m37 -87
c0 -25 -34 -77 -59 -89 -62 -32 -154 -11 -121 28 8 11 18 12 36 6 32 -13 71 3
86 35 7 16 19 25 35 25 12 0 23 -2 23 -5z m-1626 -357 c19 -18 37 -43 41 -55
5 -20 3 -23 -19 -23 -16 0 -27 7 -31 20 -9 28 -42 43 -81 37 -22 -4 -37 -1
-46 10 -17 21 14 43 64 43 30 0 46 -7 72 -32z m-147 -29 c7 -7 9 -25 6 -40
-14 -71 71 -108 121 -54 13 14 32 25 44 25 29 0 18 -33 -25 -70 -58 -51 -150
-33 -179 35 -17 41 -17 55 -4 89 10 28 20 32 37 15z"/>
<path d="M4383 5371 c-46 -21 -69 -51 -79 -99 l-6 -32 -495 0 -495 0 -28 30
c-52 56 -127 25 -117 -48 5 -37 3 -39 -171 -208 -165 -160 -178 -171 -197
-158 -45 32 -124 3 -145 -52 l-10 -24 -464 0 -464 0 -6 25 c-9 36 -48 52 -89
37 l-32 -12 -168 168 -168 168 12 32 c24 68 -23 132 -96 132 -32 0 -47 -6 -67
-27 -14 -16 -28 -36 -31 -45 -6 -17 -39 -18 -496 -18 l-490 0 -25 25 c-41 41
-56 33 -56 -30 0 -61 14 -71 50 -35 19 19 33 20 520 20 477 0 500 -1 500 -18
0 -33 47 -67 93 -66 23 0 50 3 59 8 14 6 53 -28 187 -159 139 -137 169 -172
169 -194 -2 -76 73 -105 122 -47 11 14 69 16 476 16 l464 0 10 -24 c12 -33 58
-66 92 -66 72 0 122 65 100 130 -10 28 -6 33 166 203 151 150 178 173 193 164
26 -16 71 3 87 36 l13 27 494 0 494 0 24 -47 c28 -57 73 -86 131 -86 85 0 146
59 146 143 0 108 -108 177 -207 131z m112 -25 c19 -8 41 -28 49 -45 53 -102
-36 -208 -141 -166 -36 14 -73 57 -73 84 0 22 47 11 58 -14 15 -31 57 -43 91
-24 22 12 26 22 26 59 0 37 -4 47 -26 59 -37 20 -78 7 -92 -29 -8 -21 -18 -30
-34 -30 -44 0 -13 77 41 104 39 19 58 20 101 2z m-3276 -53 c24 -20 36 -71 22
-92 -13 -20 -31 -4 -31 28 0 51 -43 68 -80 31 -24 -24 -40 -26 -40 -5 0 47 87
73 129 38z m-89 -88 c7 -8 24 -15 39 -15 14 0 32 -4 40 -9 11 -7 10 -11 -7
-20 -11 -6 -29 -11 -40 -11 -24 0 -72 37 -72 56 0 18 24 18 40 -1z m1651 -366
c28 -14 14 -29 -27 -27 -23 1 -39 -5 -47 -16 -8 -10 -22 -16 -33 -14 -17 3
-16 7 13 36 33 33 60 40 94 21z m45 -53 c7 -28 -18 -81 -41 -90 -47 -18 -91
-4 -111 35 -14 27 -13 29 6 29 11 0 20 -4 20 -10 0 -5 10 -14 21 -21 33 -17
69 3 69 39 0 46 25 59 36 18z"/>
<path d="M7204 4725 l-25 -25 -447 0 c-435 0 -448 1 -465 20 -20 24 -50 26
-67 5 -16 -19 -9 -45 16 -61 17 -12 23 -12 40 2 18 15 18 15 -2 5 -27 -13 -58
7 -52 35 4 24 41 30 58 9 15 -18 0 -20 -19 -2 -13 12 -16 10 -24 -18 -1 -4
217 -6 485 -5 477 1 487 0 493 -19 7 -24 37 -35 66 -26 18 6 41 -12 130 -101
73 -73 109 -116 109 -131 0 -28 36 -41 57 -20 22 22 0 61 -32 55 -19 -4 -44
15 -131 103 -87 87 -106 111 -101 129 4 15 -2 30 -18 46 -30 30 -40 30 -71 -1z
m76 -15 c6 -11 4 -24 -6 -38 -18 -26 -46 -28 -64 -7 -16 19 -5 34 12 17 16
-16 48 -15 48 2 0 22 -29 41 -42 28 -17 -17 -28 -15 -22 2 11 29 58 26 74 -4z"/>
<path d="M8502 4734 c-13 -9 -22 -26 -22 -42 0 -20 -25 -52 -107 -137 l-108
-110 111 108 c102 100 113 108 132 96 16 -10 26 -10 45 -2 36 17 41 50 12 79
-28 28 -33 29 -63 8z m68 -37 c0 -49 -53 -64 -72 -21 -11 23 -10 29 11 45 28
23 61 10 61 -24z"/>
<path d="M8510 4701 c-8 -16 -6 -21 10 -26 36 -11 59 26 24 39 -22 8 -22 8
-34 -13z"/>
<path d="M104 4708 c-7 -22 19 -52 40 -45 17 6 29 34 23 51 -10 24 -54 21 -63
-6z"/>
<path d="M9224 4716 c-5 -13 -28 -16 -128 -18 l-121 -2 120 -3 c94 -3 123 -7
138 -20 23 -22 52 -6 52 28 0 19 -6 25 -28 27 -18 2 -29 -2 -33 -12z"/>
<path d="M53 4693 c9 -2 23 -2 30 0 6 3 -1 5 -18 5 -16 0 -22 -2 -12 -5z"/>
<path d="M8692 4693 c48 -2 129 -2 180 0 51 1 12 3 -87 3 -99 0 -141 -2 -93
-3z"/>
<path d="M734 4444 c-18 -15 -18 -15 2 -5 16 8 26 6 40 -5 18 -13 17 -14 -8
-8 -21 5 -28 2 -28 -8 0 -23 11 -28 34 -16 19 10 20 10 7 -5 -18 -23 -37 -21
-55 5 -18 25 -21 17 -6 -13 20 -37 87 -15 78 27 -2 9 -12 23 -24 30 -17 12
-23 12 -40 -2z"/>
<path d="M1723 4438 c-20 -20 -21 -23 -7 -50 13 -26 20 -29 54 -27 37 3 43 -2
144 -101 70 -69 106 -112 108 -129 2 -20 9 -27 31 -29 15 -2 27 1 27 7 0 8
100 11 320 11 181 0 320 -4 320 -9 0 -15 32 -22 46 -10 8 6 14 22 14 35 0 20
-5 24 -29 24 -16 0 -31 -6 -35 -15 -5 -13 -49 -15 -315 -15 -265 0 -310 2
-315 15 -3 8 -18 15 -33 15 -23 0 -50 22 -135 108 -90 89 -107 111 -102 130 8
28 -20 62 -50 62 -12 0 -31 -10 -43 -22z m71 -4 c19 -19 19 -24 2 -46 -27 -36
-84 -12 -69 28 13 36 42 44 67 18z"/>
<path d="M1744 4415 c-8 -19 12 -36 33 -28 19 7 12 37 -10 41 -9 2 -20 -4 -23
-13z"/>
<path d="M3016 4441 c-23 -25 -17 -63 12 -77 31 -16 61 -7 74 22 l11 24 312 0
c270 0 314 -2 325 -15 20 -25 54 -15 58 16 2 17 -3 29 -12 32 -19 7 -46 -1
-46 -14 0 -5 -138 -9 -318 -9 -306 0 -320 1 -337 20 -23 25 -57 26 -79 1z m58
3 c26 -10 18 -23 -11 -21 -18 1 -28 -3 -31 -14 -4 -22 24 -31 42 -14 21 21 29
18 16 -5 -14 -26 -56 -26 -70 -1 -13 25 -13 27 6 45 17 18 24 19 48 10z"/>
<path d="M9849 4441 c-21 -16 -22 -22 -11 -45 16 -35 58 -36 74 -1 10 22 9 29
-6 43 -17 16 -18 16 -5 -5 12 -20 11 -25 -3 -39 -19 -19 -45 -13 -55 12 -4 11
2 23 18 35 13 10 21 19 18 19 -4 0 -17 -8 -30 -19z"/>
<path d="M10845 4440 c-15 -16 -17 -26 -9 -48 8 -22 16 -28 47 -30 31 -3 39 1
48 22 26 56 -45 101 -86 56z m69 -6 c20 -19 20 -31 2 -50 -31 -30 -84 -6 -69
32 13 36 42 44 67 18z"/>
<path d="M10864 4415 c-8 -19 12 -36 33 -28 19 7 12 37 -10 41 -9 2 -20 -4
-23 -13z"/>
<path d="M8196 4432 c-15 -18 -15 -20 5 -37 23 -22 51 -12 57 20 7 34 -35 46
-62 17z"/>
<path d="M9860 4416 c0 -8 4 -17 8 -20 13 -8 35 11 28 23 -10 16 -36 14 -36
-3z"/>
<path d="M7804 4346 c-84 -37 -58 -166 34 -166 44 0 68 14 87 50 l16 30 427 0
c422 0 428 0 446 -21 11 -14 26 -20 41 -17 19 4 42 -13 119 -91 74 -74 93 -99
86 -111 -31 -48 18 -130 78 -130 33 0 92 42 92 66 0 12 46 14 279 14 245 0
283 -2 309 -17 25 -14 32 -15 46 -4 9 7 16 25 16 40 0 20 22 48 89 115 79 78
91 87 109 77 36 -19 77 -13 106 15 14 15 26 35 26 45 0 18 14 19 310 19 192 0
310 -4 310 -10 0 -15 39 -32 59 -25 25 8 34 32 21 56 -13 23 -52 25 -70 4 -18
-21 -630 -22 -630 -1 0 24 -59 66 -92 66 -60 0 -106 -77 -78 -130 9 -16 -3
-32 -81 -107 -64 -62 -99 -88 -116 -88 -14 -1 -32 -11 -42 -23 -16 -22 -19
-23 -280 -22 -144 1 -269 4 -277 7 -8 3 -14 12 -14 20 0 7 -11 25 -25 38 -26
27 -72 33 -107 14 -18 -10 -31 -1 -114 82 -58 58 -94 101 -94 114 0 42 -54 62
-80 30 -11 -13 -72 -15 -441 -15 l-429 0 -9 23 c-20 52 -76 75 -127 53z m84
-22 c12 -8 22 -24 22 -35 0 -24 -8 -24 -36 2 -37 34 -86 3 -68 -44 10 -26 36
-29 66 -7 37 27 50 26 36 -4 -14 -33 -56 -50 -91 -37 -51 19 -62 77 -22 116
28 29 61 32 93 9z m2280 -10 c24 -17 30 -44 8 -44 -7 0 -19 7 -26 15 -27 33
-70 10 -70 -37 0 -25 3 -28 36 -28 27 0 37 5 41 20 6 24 33 27 33 3 0 -50 -74
-70 -116 -30 -66 62 19 154 94 101z m-976 -281 c10 -9 18 -22 18 -30 0 -18
-26 -17 -34 2 -3 9 -19 15 -41 15 -33 0 -43 8 -28 23 12 13 67 7 85 -10z m-92
-47 c0 -13 7 -29 15 -36 16 -13 65 -6 65 10 0 6 7 10 15 10 22 0 18 -27 -7
-44 -31 -22 -68 -20 -95 6 -22 20 -31 67 -17 81 12 11 24 -3 24 -27z"/>
<path d="M939 4321 c-30 -31 -37 -67 -19 -102 9 -16 4 -26 -37 -64 l-48 -44
-286 -1 -286 0 -13 25 c-26 49 -106 44 -124 -8 -27 -77 85 -124 124 -52 l13
25 281 0 280 0 -39 -40 c-27 -27 -45 -38 -57 -34 -11 3 -26 -4 -41 -19 l-22
-25 -273 0 -273 0 -13 33 c-8 19 -23 38 -34 44 -26 14 -72 14 -72 1 0 -5 13
-10 28 -10 31 0 62 -27 62 -53 0 -23 -17 -21 -30 3 -6 12 -21 20 -35 20 -22 0
-25 -4 -25 -40 0 -33 3 -40 19 -40 11 0 26 7 35 15 19 19 36 19 36 1 0 -20
-39 -46 -67 -46 -13 0 -23 -4 -23 -10 0 -5 11 -10 24 -10 28 0 86 45 86 66 0
22 551 21 585 -2 32 -21 65 -4 65 34 0 20 13 41 43 70 l43 42 442 0 c396 0
442 -2 442 -16 0 -8 14 -29 30 -46 30 -30 56 -34 100 -14 11 5 67 -42 192
-164 160 -155 176 -173 176 -204 0 -24 -8 -42 -28 -61 -24 -23 -30 -25 -53
-14 -22 10 -31 9 -52 -5 -14 -10 -29 -24 -32 -32 -8 -21 -583 -21 -583 1 0 21
-36 38 -58 26 -16 -8 -35 7 -120 92 -98 99 -101 103 -96 138 5 31 2 39 -22 58
-32 25 -59 21 -89 -15 l-21 -24 -307 0 c-173 0 -307 4 -307 9 0 17 -33 21 -50
6 -25 -22 -225 -22 -234 1 -8 20 -55 15 -70 -9 -15 -23 3 -51 37 -55 18 -2 29
3 37 17 10 19 20 21 114 21 80 0 106 -3 116 -15 16 -19 34 -19 50 0 11 13 55
15 316 13 282 -2 304 -4 310 -20 8 -26 42 -41 77 -34 29 6 38 -1 134 -96 64
-64 103 -110 103 -123 0 -41 45 -60 70 -30 11 13 56 15 295 15 l283 0 30 -30
c37 -37 55 -38 88 -5 20 20 24 32 19 53 -4 22 0 33 20 52 21 20 28 22 50 12
36 -17 41 -16 75 18 17 17 27 30 22 30 -5 0 -14 12 -21 27 -11 24 -9 29 24 63
28 29 41 36 64 32 22 -3 32 1 40 17 12 21 17 21 321 21 273 0 310 -2 310 -15
0 -31 47 -65 89 -65 76 0 119 93 67 145 -49 49 -118 39 -146 -22 l-15 -33
-311 0 c-268 0 -313 2 -318 15 -7 19 -50 19 -66 0 -7 -8 -10 -24 -7 -34 3 -13
-9 -32 -39 -62 -24 -23 -46 -40 -50 -37 -3 4 -18 2 -32 -3 -24 -9 -36 0 -204
168 -116 116 -174 181 -168 187 6 6 10 25 10 43 0 75 -90 110 -144 57 -14 -15
-26 -31 -26 -35 0 -5 -197 -9 -437 -9 l-438 0 41 41 c36 35 44 40 62 30 36
-19 77 -13 106 15 14 15 26 35 26 45 0 18 14 19 308 19 296 0 308 -1 320 -20
16 -26 58 -26 72 1 9 16 8 26 -5 45 -19 29 -36 30 -60 4 -17 -19 -31 -20 -327
-20 -258 0 -308 2 -308 14 0 8 -14 26 -31 40 -41 35 -83 34 -120 -3z m109 -7
c25 -17 29 -44 7 -44 -8 0 -15 4 -15 10 0 16 -49 23 -65 10 -8 -7 -15 -25 -15
-41 0 -27 3 -29 36 -29 27 0 37 5 41 20 6 24 33 27 33 3 0 -50 -74 -70 -116
-30 -65 61 20 153 94 101z m-823 -174 c23 -25 12 -39 -13 -16 -25 21 -52 11
-52 -20 0 -31 25 -41 49 -20 22 20 31 20 31 1 0 -36 -71 -46 -94 -13 -21 30
-20 44 4 68 25 25 52 25 75 0z m1637 3 c21 -19 26 -87 6 -81 -7 3 -14 15 -14
28 -1 13 -9 29 -19 36 -15 11 -23 11 -46 -3 -35 -21 -49 -10 -24 17 22 24 72
26 97 3z m-82 -62 c6 -12 23 -21 43 -23 38 -4 39 -22 2 -26 -33 -4 -75 23 -75
48 0 25 16 26 30 1z m1444 -212 c50 -39 23 -119 -42 -121 -33 -1 -72 25 -72
49 0 18 26 17 34 -2 3 -9 18 -15 35 -15 24 0 32 5 37 25 12 48 -43 76 -68 35
-15 -23 -38 -27 -38 -5 0 21 40 55 66 55 12 0 33 -9 48 -21z m-2037 -35 c16
-25 16 -27 0 -39 -9 -6 -14 -14 -11 -18 3 -3 -4 -8 -15 -12 -26 -8 -61 11 -61
32 0 15 2 15 18 0 24 -22 39 -21 51 2 15 28 -13 50 -41 32 -24 -15 -35 -7 -18
14 20 24 57 18 77 -11z m981 -307 c4 -32 -31 -59 -62 -48 -22 9 -36 41 -17 41
6 0 11 -4 11 -10 0 -5 11 -10 24 -10 17 0 25 7 28 25 5 22 2 25 -23 25 -16 0
-29 -4 -29 -10 0 -5 -4 -10 -10 -10 -19 0 -10 31 13 39 29 12 61 -8 65 -42z"/>
<path d="M11005 4291 c17 -18 53 -56 82 -83 32 -31 53 -60 55 -76 2 -21 9 -28
31 -30 15 -2 27 1 27 7 0 8 97 11 310 11 269 0 314 -2 335 -16 30 -20 55 -5
55 31 0 14 19 40 51 70 28 26 49 49 47 51 -3 2 -26 -19 -53 -46 -36 -37 -57
-50 -77 -50 -16 0 -31 -7 -34 -15 -5 -13 -50 -15 -314 -15 -264 0 -309 2 -314
15 -3 8 -18 15 -33 15 -21 0 -48 20 -113 83 -46 45 -71 67 -55 48z"/>
<path d="M2814 4198 l-29 -33 33 29 c17 17 32 31 32 33 0 8 -8 1 -36 -29z"/>
<path d="M8607 4179 c-11 -6 -25 -26 -33 -45 l-14 -34 -304 0 c-290 0 -304 1
-321 20 -33 36 -75 19 -75 -29 0 -19 -26 -52 -102 -128 l-102 -102 -41 6 c-37
5 -44 2 -62 -21 l-21 -26 -284 0 c-277 0 -283 0 -296 21 -10 16 -20 20 -41 16
-24 -5 -39 6 -130 97 -82 82 -102 108 -97 124 4 11 1 32 -5 46 -22 46 -90 46
-111 0 l-11 -24 -302 0 c-257 0 -304 2 -315 15 -7 8 -21 15 -32 15 -10 0 -21
-7 -24 -15 -5 -12 -27 -15 -109 -15 -89 0 -104 2 -120 20 -21 24 -48 26 -65 5
-15 -18 -6 -61 16 -69 17 -7 54 10 54 24 0 15 206 13 230 -2 16 -10 24 -10 40
0 15 9 99 12 322 12 295 0 304 -1 316 -20 16 -27 51 -40 78 -30 18 7 37 -8
127 -98 67 -68 107 -116 109 -132 2 -20 9 -26 36 -28 22 -2 34 2 38 12 5 14
42 16 288 16 l282 0 22 -30 c26 -34 70 -41 96 -14 17 16 19 24 17 64 -2 37
197 235 227 226 14 -5 28 0 41 13 20 20 32 21 331 21 260 0 310 -2 310 -14 0
-20 57 -66 81 -66 58 0 107 60 93 114 -13 53 -88 83 -137 55z m101 -32 c29
-27 28 -62 -3 -92 -32 -33 -69 -32 -103 2 -23 24 -25 28 -10 31 10 2 25 -4 34
-12 20 -20 38 -20 59 0 20 21 16 43 -12 61 -20 14 -24 13 -49 -12 -31 -31 -52
-21 -28 14 31 43 69 46 112 8z m-2054 -13 c31 -31 11 -84 -32 -84 -10 0 -27 9
-37 20 -16 18 -16 20 -2 20 10 0 17 -4 17 -10 0 -5 11 -10 25 -10 20 0 25 5
25 24 0 31 -28 41 -52 20 -26 -24 -34 -10 -9 15 25 25 44 27 65 5z m980 -295
c39 -46 -19 -105 -64 -64 -11 10 -17 22 -14 27 3 5 14 2 25 -8 22 -20 49 -12
49 16 0 24 -26 38 -43 21 -6 -6 -18 -11 -26 -11 -11 0 -10 4 4 20 23 26 46 25
69 -1z"/>
<path d="M3842 4160 c-24 -22 -37 -62 -29 -84 3 -8 -46 -65 -124 -142 l-129
-129 -75 75 c-50 50 -75 82 -75 97 0 34 -43 52 -68 30 -17 -15 -62 -17 -451
-17 l-431 0 -10 24 c-18 48 -84 71 -132 45 -31 -17 -50 -71 -37 -108 27 -76
141 -79 169 -5 l10 24 430 0 c420 0 430 0 451 -21 13 -13 27 -18 41 -13 16 5
35 -9 94 -67 l74 -73 -51 -52 c-47 -48 -54 -51 -89 -47 -31 4 -40 1 -54 -18
-21 -31 -20 -45 4 -69 39 -39 95 -15 95 42 0 27 9 42 53 82 48 45 54 48 68 34
13 -12 14 -20 5 -36 -17 -32 -13 -58 15 -91 46 -55 133 -38 157 32 6 16 29 17
285 17 236 0 281 -2 292 -15 19 -23 59 -19 69 8 5 12 7 27 5 32 -3 6 36 50 85
99 l89 88 34 -11 c19 -6 44 -9 54 -5 30 11 64 46 64 66 0 17 17 18 314 18 270
0 315 -2 320 -15 7 -18 47 -20 64 -3 18 18 14 46 -8 58 -22 12 -60 5 -60 -11
0 -5 -126 -9 -312 -9 l-313 1 -20 32 c-17 27 -27 32 -66 35 -41 3 -49 0 -73
-28 -28 -34 -32 -59 -15 -92 10 -18 1 -30 -77 -109 -69 -69 -95 -89 -116 -89
-17 0 -33 -8 -40 -20 -12 -19 -23 -20 -288 -20 l-275 1 -20 32 c-29 46 -66 61
-111 47 -27 -9 -38 -9 -50 1 -13 11 3 30 112 140 l127 128 25 -20 c14 -10 35
-19 48 -19 29 0 84 46 84 71 0 18 15 19 515 19 310 0 515 -4 515 -9 0 -18 31
-41 55 -41 50 0 73 60 37 93 -26 24 -57 21 -80 -8 l-20 -25 -511 0 c-349 0
-511 3 -511 10 0 6 -11 22 -25 35 -30 31 -82 33 -113 5z m101 -18 c9 -8 17
-19 17 -24 0 -13 -27 -9 -40 7 -18 22 -28 19 -61 -17 l-29 -32 0 25 c0 38 45
73 80 61 8 -3 23 -12 33 -20z m17 -59 c0 -45 -65 -69 -106 -39 -14 11 -16 18
-8 26 8 8 14 9 18 1 12 -18 55 -12 66 9 13 24 30 26 30 3z m-1540 -60 c24 -31
10 -45 -19 -19 -40 36 -95 1 -71 -44 13 -24 47 -26 71 -4 29 26 43 12 19 -19
-29 -37 -80 -38 -109 -1 -12 15 -21 34 -21 44 0 10 9 29 21 44 29 37 80 36
109 -1z m2254 16 c25 -12 41 -37 31 -47 -3 -3 -18 2 -34 11 -25 15 -30 15 -50
0 -14 -9 -21 -22 -18 -34 3 -10 -1 -23 -8 -29 -10 -8 -15 -6 -20 10 -11 34 3
68 33 84 33 19 35 19 66 5z m46 -79 c0 -6 -11 -22 -25 -35 -25 -25 -59 -32
-84 -16 -21 13 -3 32 24 25 17 -4 29 0 42 15 18 22 43 28 43 11z m-1014 -208
c26 -21 38 -52 21 -52 -7 0 -21 9 -30 21 -13 15 -25 19 -42 15 -27 -7 -45 12
-24 25 22 14 52 10 75 -9z m-83 -51 c-12 -45 54 -62 84 -22 9 12 15 13 23 5
18 -18 -46 -67 -79 -59 -47 11 -71 56 -55 99 9 23 34 1 27 -23z"/>
<path d="M11437 4059 c-31 -18 -48 -72 -36 -108 27 -76 141 -79 169 -5 l10 24
210 0 c133 0 210 4 210 10 0 6 -77 10 -210 10 l-210 0 -10 24 c-18 48 -87 72
-133 45z m103 -36 c24 -31 10 -45 -19 -19 -24 22 -58 20 -71 -4 -24 -45 31
-80 71 -44 29 26 43 12 19 -19 -28 -35 -72 -36 -105 -2 -30 30 -31 54 -4 89
29 37 80 36 109 -1z"/>
<path d="M10220 3850 l-28 -30 -306 0 c-173 0 -306 4 -306 9 0 17 -33 21 -50
6 -25 -22 -225 -22 -234 1 -8 20 -55 15 -70 -8 -15 -24 3 -52 37 -56 18 -2 29
3 37 17 10 19 20 21 114 21 80 0 106 -3 116 -15 7 -8 18 -15 25 -15 7 0 18 7
25 15 11 13 58 15 316 15 294 0 303 -1 309 -20 9 -28 41 -43 79 -36 28 5 37 0
86 -49 l54 -55 -278 0 -277 0 -33 35 c-25 26 -42 35 -65 35 -46 0 -81 -38 -81
-87 0 -36 -10 -48 -182 -220 -181 -181 -183 -183 -219 -177 -33 6 -39 3 -60
-25 l-22 -31 -496 6 c-272 3 -495 6 -496 7 0 1 -5 11 -11 22 -9 15 -22 20 -52
20 -39 0 -47 6 -215 172 l-175 173 11 35 c9 31 8 39 -10 63 -40 54 -111 55
-141 2 l-17 -30 -735 0 -735 0 -10 22 c-6 13 -23 27 -38 33 -71 24 -120 -68
-61 -114 33 -26 59 -21 95 20 l25 29 726 0 726 0 19 -37 c22 -47 60 -62 106
-45 l32 12 176 -176 c145 -145 175 -180 171 -199 -5 -27 28 -65 56 -65 11 0
27 9 37 20 18 19 31 20 520 20 489 0 502 -1 520 -20 20 -22 46 -25 76 -10 13
8 19 21 19 47 0 35 12 49 184 218 l183 181 23 -18 c34 -27 77 -23 111 11 16
16 29 37 29 45 0 14 32 16 288 16 l288 0 42 -43 c23 -23 42 -52 42 -63 0 -40
45 -59 70 -29 11 13 56 15 297 15 l284 0 26 -30 c30 -37 56 -38 89 -4 20 19
24 31 19 51 -6 24 6 38 100 133 86 86 111 106 130 103 14 -3 30 3 42 16 18 19
32 21 224 24 l204 2 -211 3 c-178 2 -213 4 -218 17 -7 19 -50 19 -66 0 -7 -8
-10 -24 -7 -35 4 -15 -20 -44 -105 -124 -101 -97 -111 -104 -133 -94 -19 9
-30 7 -50 -6 -14 -10 -29 -24 -32 -32 -4 -12 -51 -14 -285 -14 l-281 0 -23 25
c-19 20 -27 23 -47 16 -21 -8 -29 -5 -56 23 -17 17 -31 35 -31 39 0 4 94 7
209 7 l209 0 16 -25 c33 -50 116 -18 102 40 -9 34 -48 52 -81 37 -14 -6 -25
-18 -25 -27 0 -13 -31 -15 -228 -15 l-228 0 -57 58 c-52 52 -57 61 -51 89 5
26 1 37 -19 57 -34 34 -53 33 -87 -4z m82 -7 c24 -22 23 -33 -8 -62 -21 -20
-28 -22 -49 -13 -14 7 -25 19 -25 28 0 16 1 16 18 1 24 -22 39 -21 51 2 15 28
-13 50 -41 32 -24 -15 -35 -7 -18 14 16 20 49 19 72 -2z m-4204 -159 c23 -16
29 -34 11 -34 -6 0 -17 7 -25 15 -19 18 -57 2 -52 -22 6 -30 35 -39 57 -18 27
24 40 11 16 -15 -33 -37 -95 -14 -95 36 0 22 33 54 55 54 6 0 21 -7 33 -16z
m1648 -8 c17 -28 16 -67 -3 -74 -9 -2 -13 7 -13 27 0 17 -7 34 -16 39 -19 11
-54 4 -54 -9 0 -5 -7 -9 -15 -9 -19 0 -19 9 2 32 24 27 79 24 99 -6z m2079 2
c19 -28 4 -35 -29 -13 -25 17 -27 16 -55 -14 -16 -17 -32 -31 -35 -31 -13 0
-5 29 15 54 27 34 81 36 104 4z m-2167 -58 c8 -13 23 -20 41 -20 34 0 49 -15
25 -24 -33 -13 -63 -5 -83 20 -11 15 -18 30 -15 35 8 14 18 11 32 -11z m2182
5 c0 -43 -82 -73 -110 -40 -15 18 -3 42 13 26 19 -19 58 -13 64 9 6 23 33 27
33 5z m1450 -85 c15 -27 -27 -71 -59 -63 -27 7 -49 43 -26 43 8 0 15 -4 15
-10 0 -5 11 -10 24 -10 17 0 25 7 28 25 5 22 2 25 -23 25 -16 0 -29 -4 -29
-10 0 -5 -4 -10 -10 -10 -19 0 -10 31 13 39 26 10 52 -1 67 -29z"/>
<path d="M2618 3643 c122 -2 322 -2 445 0 122 1 22 2 -223 2 -245 0 -345 -1
-222 -2z"/>
<path d="M2709 3530 c-42 -22 -69 -71 -69 -125 0 -93 87 -161 180 -140 41 9
96 58 105 93 4 15 10 29 15 32 4 3 320 4 702 2 l693 -2 10 -22 c14 -31 60 -46
87 -29 19 12 31 3 175 -141 l154 -154 -16 -37 c-20 -49 -19 -72 6 -124 53
-110 205 -109 259 2 l22 45 452 0 c438 0 453 -1 471 -20 26 -29 50 -33 85 -15
30 15 35 27 31 75 -1 20 28 54 143 169 l144 144 35 -16 c90 -43 194 7 213 102
l7 31 493 0 494 0 12 -24 c15 -34 59 -51 90 -35 31 16 38 28 38 66 0 60 -70
83 -116 38 l-25 -25 -494 0 -493 0 -19 37 c-28 58 -76 86 -141 81 -66 -6 -101
-31 -127 -92 -19 -46 -19 -49 -1 -98 l18 -51 -144 -144 c-129 -129 -146 -143
-170 -137 -40 8 -66 -3 -83 -36 l-15 -29 -449 1 -450 0 -6 29 c-20 89 -132
137 -217 93 l-31 -16 -153 153 c-134 134 -154 158 -154 186 0 22 -8 38 -26 52
-35 28 -59 26 -90 -4 l-25 -25 -699 0 c-626 0 -700 2 -700 15 0 30 -29 73 -63
94 -43 26 -109 27 -158 1z m157 -44 c19 -19 34 -41 34 -50 0 -23 -47 -21 -55
3 -3 10 -19 24 -36 31 -27 11 -34 10 -57 -7 -33 -25 -41 -76 -16 -104 26 -28
78 -25 103 6 23 30 61 42 61 19 0 -24 -31 -64 -61 -80 -79 -40 -169 16 -169
106 0 62 53 109 124 110 30 0 45 -7 72 -34z m3654 9 c16 -9 37 -29 45 -45 15
-30 15 -30 -12 -30 -17 0 -33 8 -41 20 -17 28 -75 27 -103 -1 -16 -16 -20 -28
-15 -51 6 -29 -6 -58 -24 -58 -9 0 -30 46 -30 66 0 30 33 85 59 99 34 19 85
19 121 0z m60 -112 c-2 -73 -117 -131 -175 -89 -29 21 -4 46 39 39 42 -7 74
10 82 42 8 30 54 37 54 8z m-1634 -339 c28 -19 58 -70 49 -84 -12 -19 -42 -10
-53 15 -15 32 -54 48 -86 35 -18 -6 -28 -5 -36 6 -33 39 73 62 126 28z m-139
-45 c6 -6 9 -25 6 -43 -10 -67 74 -103 119 -51 26 31 69 35 61 6 -3 -10 -18
-32 -35 -47 -24 -24 -38 -29 -78 -29 -40 0 -54 5 -79 29 -35 34 -47 79 -32
119 11 29 21 33 38 16z"/>
<path d="M4035 3276 c-39 -17 -64 -46 -80 -93 l-13 -38 -495 -2 -495 -1 -21
29 c-42 57 -127 24 -119 -47 4 -32 -5 -42 -169 -206 -158 -157 -175 -172 -193
-160 -48 29 -120 7 -145 -44 l-16 -34 -464 0 c-445 0 -465 1 -465 18 0 42 -78
70 -108 40 -17 -17 -356 319 -345 342 14 29 8 98 -11 119 -51 56 -143 43 -171
-24 l-15 -35 -358 -3 -357 -2 357 -3 358 -2 15 -35 c21 -51 74 -73 126 -52
l37 14 170 -171 c140 -140 170 -176 170 -199 -1 -64 81 -92 120 -42 l20 25
461 0 461 0 14 -34 c31 -74 106 -88 162 -32 36 36 43 70 22 109 -10 20 3 35
168 193 147 142 182 171 199 165 32 -12 69 2 83 32 l13 27 497 0 497 -1 20
-42 c68 -142 275 -101 275 55 0 106 -109 177 -205 134z m126 -39 c94 -63 48
-207 -66 -207 -35 0 -51 6 -74 28 -16 15 -32 37 -36 50 -5 19 -3 22 19 22 16
0 27 -7 31 -19 14 -46 102 -42 123 4 12 27 7 50 -16 78 -28 33 -95 16 -112
-28 -7 -17 -14 -22 -29 -18 -25 6 -26 15 -6 53 31 60 107 77 166 37z m-3283
-53 c23 -26 28 -59 13 -83 -13 -20 -31 -4 -31 28 0 15 -5 32 -12 39 -19 19
-56 14 -70 -8 -14 -23 -38 -27 -38 -7 0 17 20 42 45 56 28 15 66 5 93 -25z
m-100 -75 c10 -16 21 -20 43 -17 42 7 60 -18 23 -32 -45 -17 -104 16 -104 59
0 19 25 12 38 -10z m1661 -368 c23 -15 2 -33 -29 -26 -22 5 -33 1 -47 -14 -20
-24 -43 -28 -43 -6 0 39 80 71 119 46z m35 -47 c3 -9 6 -22 6 -31 0 -23 -56
-73 -83 -73 -31 0 -77 36 -77 61 0 24 15 25 32 1 31 -44 88 -33 88 17 0 41 22
57 34 25z"/>
<path d="M8591 3073 c-47 -24 -71 -67 -71 -131 0 -48 4 -57 39 -95 38 -40 42
-42 100 -42 72 0 107 21 136 83 l19 42 690 2 c562 3 692 1 700 -10 33 -41 49
-52 74 -52 15 0 32 4 38 10 6 6 64 -43 168 -144 l158 -153 -16 -31 c-31 -60
-11 -144 44 -184 30 -22 88 -33 124 -24 38 9 94 63 101 96 l7 30 455 0 c439 0
455 -1 471 -20 27 -31 64 -34 95 -10 23 18 27 29 25 61 -1 31 3 42 25 59 15
12 27 31 27 43 0 19 -3 17 -29 -13 -25 -30 -34 -34 -77 -35 -44 0 -51 -3 -69
-32 l-20 -32 -448 -1 c-418 0 -448 1 -453 18 -14 45 -42 87 -69 104 -37 22
-123 24 -151 3 -10 -8 -22 -15 -27 -15 -4 0 -76 68 -160 150 -140 136 -153
153 -149 179 3 22 -2 36 -21 55 -34 34 -60 33 -98 -3 l-31 -30 -689 -1 -688 0
-23 47 c-41 85 -125 116 -207 76z m129 -28 c31 -16 65 -69 55 -85 -11 -18 -34
-10 -55 20 -16 23 -29 30 -54 30 -64 0 -94 -55 -56 -103 28 -35 72 -36 104 -2
20 22 66 35 66 20 0 -20 -35 -67 -60 -80 -68 -35 -146 -3 -170 71 -31 94 78
177 170 129z m2116 -479 c38 -38 45 -71 14 -73 -13 -1 -25 8 -35 26 -16 32
-56 47 -83 32 -12 -7 -22 -5 -35 7 -17 15 -17 16 5 29 13 7 40 12 62 13 30 0
45 -7 72 -34z m-146 -74 c0 -46 24 -72 66 -72 31 0 64 21 64 41 0 5 11 9 25 9
29 0 32 -16 9 -48 -19 -28 -65 -52 -99 -52 -80 0 -141 93 -104 161 15 30 39 6
39 -39z"/>
<path d="M9915 2816 c-42 -19 -76 -59 -84 -98 l-7 -33 -501 -3 c-492 -2 -501
-2 -506 18 -7 28 -51 46 -85 34 -34 -12 -57 -56 -43 -82 8 -16 -17 -45 -167
-195 -165 -164 -178 -175 -196 -162 -44 33 -124 8 -146 -45 l-12 -30 -462 0
-462 0 -11 30 c-13 34 -53 48 -94 33 -26 -10 -34 -4 -194 157 -166 166 -168
168 -157 198 25 71 -25 138 -100 136 -43 -2 -70 -21 -88 -65 l-12 -29 -491 0
-490 0 -23 25 c-13 14 -32 25 -43 25 -11 0 -28 -11 -39 -25 -20 -25 -21 -25
-184 -25 l-164 0 -22 30 c-42 56 -127 27 -120 -42 7 -69 93 -87 127 -27 l16
29 168 0 c144 0 168 -2 174 -16 13 -35 75 -34 96 2 7 12 97 14 502 14 l494 0
7 -22 c18 -60 68 -85 132 -67 l44 12 168 -168 c152 -151 168 -171 163 -196
-12 -61 88 -98 122 -45 l16 24 463 0 463 -1 12 -33 c14 -38 54 -64 99 -64 62
0 110 72 89 134 -9 27 -4 34 165 203 170 169 175 174 201 162 22 -10 31 -9 53
6 14 9 29 26 31 36 5 18 23 19 509 19 473 0 504 -1 504 -17 0 -30 37 -81 71
-99 23 -11 48 -15 86 -12 143 12 183 195 58 265 -45 26 -86 28 -130 9z m115
-32 c103 -61 63 -214 -56 -214 -39 0 -51 5 -80 34 -40 40 -44 66 -10 66 15 0
26 -7 29 -20 3 -11 17 -24 31 -30 70 -26 128 58 76 110 -37 37 -94 21 -113
-32 -9 -26 -47 -23 -47 3 0 31 18 58 53 79 39 24 80 25 117 4z m-3305 -36 c34
-15 57 -60 49 -93 -8 -33 -28 -27 -32 11 -2 16 -8 35 -14 42 -16 19 -56 14
-70 -8 -12 -19 -48 -28 -48 -12 0 16 33 54 54 62 29 12 31 12 61 -2z m-70 -98
c10 -11 31 -20 46 -20 15 0 30 -4 34 -9 9 -15 -32 -32 -60 -25 -24 6 -65 47
-65 65 0 16 27 9 45 -11z m1656 -371 c29 -15 12 -31 -26 -23 -27 5 -36 2 -47
-15 -13 -22 -48 -29 -48 -11 0 6 11 22 25 35 26 26 63 32 96 14z m39 -68 c0
-84 -108 -113 -145 -40 -20 38 -1 48 30 15 13 -14 30 -26 36 -26 21 0 49 32
49 55 0 12 3 25 7 28 15 16 23 5 23 -32z"/>
<path d="M990 1605 c0 -8 9 -15 20 -15 18 0 20 -8 22 -102 2 -70 7 -103 16
-106 9 -3 12 22 12 102 l0 106 26 0 c16 0 24 5 22 13 -3 7 -27 13 -61 15 -46
2 -57 0 -57 -13z"/>
<path d="M1120 1507 c0 -130 2 -133 93 -118 19 3 -6 21 -29 21 -21 0 -24 4
-24 40 0 33 3 40 20 40 11 0 20 7 20 15 0 8 -9 15 -20 15 -16 0 -20 7 -20 34
0 30 4 35 25 38 44 5 32 23 -17 26 l-48 3 0 -114z"/>
<path d="M1254 1606 c-16 -12 -19 -27 -19 -101 0 -79 2 -88 24 -106 13 -10 32
-19 42 -19 27 0 59 35 59 65 0 35 -23 31 -37 -6 -8 -21 -17 -30 -30 -27 -16 3
-18 14 -18 88 0 80 1 85 22 88 17 3 24 -3 29 -22 7 -29 34 -36 34 -8 0 52 -62
80 -106 48z"/>
<path d="M1384 1607 c-2 -7 -3 -60 -2 -118 2 -84 6 -104 18 -104 11 0 16 14
18 53 3 50 4 52 33 52 29 0 29 -1 29 -56 0 -40 3 -55 13 -52 8 3 13 39 15 121
2 100 0 117 -13 117 -11 0 -15 -12 -15 -50 0 -49 -1 -50 -30 -50 -29 0 -30 1
-30 50 0 38 -4 50 -15 50 -9 0 -18 -6 -21 -13z"/>
<path d="M1544 1607 c-2 -7 -3 -60 -2 -118 2 -84 6 -104 18 -104 11 0 16 17
20 70 l5 70 26 -70 c14 -38 30 -70 35 -70 5 0 10 53 12 118 2 100 0 117 -13
117 -12 0 -15 -13 -15 -67 0 -75 -7 -74 -40 10 -22 56 -36 70 -46 44z"/>
<path d="M1714 1606 c-16 -12 -19 -27 -19 -106 0 -79 3 -94 19 -106 28 -20 63
-17 86 6 28 28 30 178 2 203 -23 21 -62 22 -88 3z m70 -32 c3 -9 6 -42 6 -74
0 -32 -3 -65 -6 -74 -8 -22 -41 -20 -54 3 -11 21 -13 103 -4 139 7 26 48 31
58 6z"/>
<path d="M1852 1503 l3 -118 43 0 c27 0 42 4 42 12 0 8 -12 13 -30 13 l-30 0
0 105 c0 88 -3 105 -15 105 -13 0 -15 -17 -13 -117z"/>
<path d="M1977 1602 c-13 -14 -17 -39 -17 -105 0 -81 2 -88 25 -103 39 -25 81
-11 96 33 17 51 6 163 -17 180 -25 19 -68 16 -87 -5z m71 -99 c-3 -86 -3 -88
-28 -88 -24 0 -25 3 -28 74 -4 90 0 101 33 101 l26 0 -3 -87z"/>
<path d="M2135 1600 c-20 -22 -31 -101 -21 -155 9 -46 46 -73 81 -57 16 7 26
8 30 1 14 -21 25 5 25 57 l0 54 -35 0 c-38 0 -47 -14 -16 -23 16 -4 19 -10 12
-33 -6 -22 -13 -29 -32 -29 -21 0 -25 6 -33 48 -13 65 1 121 31 125 17 3 26
-3 33 -22 12 -33 30 -34 30 -2 0 52 -69 76 -105 36z"/>
<path d="M2264 1603 c34 -112 45 -153 48 -183 4 -50 22 -40 30 17 3 26 16 75
27 107 25 70 25 76 6 76 -9 0 -21 -21 -32 -57 l-17 -58 -16 55 c-11 35 -24 56
-35 58 -12 3 -15 -1 -11 -15z"/>
<path d="M2464 1606 c-3 -8 -4 -62 -2 -118 4 -98 5 -102 26 -101 12 0 33 1 46
2 33 1 56 26 56 61 0 16 -7 36 -16 44 -14 15 -14 17 0 32 38 37 9 84 -57 91
-37 4 -48 2 -53 -11z m91 -36 c8 -25 -10 -50 -36 -50 -15 0 -19 7 -19 35 0 30
3 35 24 35 16 0 27 -7 31 -20z m1 -105 c7 -29 -10 -55 -37 -55 -15 0 -19 8
-19 40 0 36 3 40 25 40 18 0 26 -7 31 -25z"/>
<path d="M2628 1508 c-14 -62 -23 -116 -21 -120 7 -14 32 4 35 25 5 33 46 35
54 3 3 -13 12 -27 20 -30 20 -7 18 21 -9 134 -32 135 -47 133 -79 -12z m52 -4
c0 -25 -4 -34 -16 -34 -11 0 -14 5 -10 16 3 9 6 27 6 40 0 14 4 22 10 19 6 -3
10 -22 10 -41z"/>
<path d="M2770 1600 c-30 -30 -29 -166 0 -198 39 -41 95 -22 106 36 9 43 -20
45 -35 2 -11 -34 -35 -39 -51 -11 -11 21 -13 103 -4 139 9 31 51 31 56 0 2
-13 11 -24 22 -26 16 -3 18 0 12 25 -13 53 -68 71 -106 33z"/>
<path d="M2902 1503 c2 -82 7 -118 16 -121 8 -2 12 9 12 35 0 36 14 73 23 63
2 -3 13 -26 24 -51 12 -27 27 -46 37 -46 21 0 21 5 -11 77 l-26 61 21 45 c27
54 27 54 4 54 -11 0 -27 -17 -42 -47 l-25 -48 -3 48 c-2 33 -7 47 -18 47 -12
0 -14 -19 -12 -117z"/>
<path d="M3065 1606 c-21 -15 -32 -109 -21 -171 9 -45 46 -66 79 -46 15 10 22
11 25 2 10 -30 22 -4 22 49 l0 60 -30 0 c-16 0 -30 -4 -30 -10 0 -5 7 -10 15
-10 15 0 20 -26 9 -54 -8 -22 -41 -20 -54 3 -14 28 -12 124 3 145 18 24 51 17
55 -12 4 -30 32 -29 32 1 0 48 -63 74 -105 43z"/>
<path d="M3202 1503 c2 -97 6 -118 18 -118 11 0 16 14 18 53 4 66 19 64 42 -3
17 -50 40 -72 40 -37 0 11 -6 37 -14 59 -12 33 -12 42 0 58 36 49 0 105 -66
105 l-41 0 3 -117z m83 67 c7 -23 -10 -50 -31 -50 -9 0 -14 12 -14 35 0 28 4
35 19 35 11 0 23 -9 26 -20z"/>
<path d="M3366 1605 c-37 -37 -34 -176 4 -207 28 -23 52 -23 79 0 18 15 21 29
22 100 1 66 -2 87 -16 102 -22 24 -68 26 -89 5z m69 -105 c0 -84 0 -85 -25
-85 -24 0 -25 3 -28 74 -4 89 1 103 30 99 22 -3 23 -7 23 -88z"/>
<path d="M3504 1605 c-3 -8 -4 -53 -3 -101 4 -76 7 -88 28 -105 29 -24 53 -24
82 0 22 18 24 28 27 121 4 95 3 102 -15 98 -16 -3 -19 -16 -23 -103 -5 -99 -5
-100 -30 -100 -25 0 -25 1 -28 103 -2 83 -6 102 -18 102 -8 0 -17 -7 -20 -15z"/>
<path d="M3670 1500 c0 -98 3 -120 15 -120 11 0 15 17 17 73 l3 72 18 -37 c9
-21 24 -54 32 -74 24 -59 35 -31 35 92 0 95 -3 114 -15 114 -12 0 -15 -14 -15
-65 0 -36 -3 -65 -8 -65 -4 0 -18 29 -30 65 -14 38 -30 65 -38 65 -11 0 -14
-23 -14 -120z"/>
<path d="M3822 1503 l3 -118 44 1 c61 1 71 18 71 120 0 74 -2 84 -22 98 -12 9
-40 16 -61 16 l-38 0 3 -117z m86 17 c4 -83 -3 -110 -28 -110 -18 0 -20 7 -20
91 0 88 1 90 23 87 20 -3 22 -9 25 -68z"/>
<path d="M1071 1178 c1 -35 4 -51 6 -37 3 20 11 28 34 33 22 4 29 11 29 30 0
24 -16 36 -51 36 -17 0 -19 -7 -18 -62z m54 27 c0 -13 -8 -21 -22 -23 -19 -3
-23 1 -23 23 0 22 4 26 23 23 14 -2 22 -10 22 -23z"/>
<path d="M1362 1178 c-16 -48 -17 -58 -5 -40 20 28 49 28 56 0 4 -12 9 -20 12
-17 6 6 -23 99 -35 112 -4 5 -17 -20 -28 -55z m38 5 c0 -7 -7 -13 -16 -13 -11
0 -14 5 -10 16 3 9 6 21 6 27 0 16 20 -14 20 -30z"/>
<path d="M1513 1234 c-18 -8 -27 -68 -14 -93 14 -25 53 -28 71 -6 9 10 9 15 1
15 -6 0 -11 -4 -11 -10 0 -5 -9 -10 -20 -10 -27 0 -43 41 -30 75 10 27 29 32
49 13 11 -11 13 -10 9 2 -5 15 -34 23 -55 14z"/>
<path d="M1650 1180 l0 -60 38 2 c36 1 36 1 5 5 -27 4 -33 9 -33 28 0 17 7 25
23 28 l22 4 -22 2 c-38 2 -30 39 10 44 31 4 31 4 -5 5 l-38 2 0 -60z"/>
<path d="M1881 1235 c0 -5 6 -21 14 -35 8 -14 14 -37 15 -52 0 -16 5 -28 10
-28 6 0 10 11 10 25 0 15 7 40 16 56 8 17 13 33 10 36 -3 3 -11 -6 -17 -21
-12 -25 -29 -36 -29 -18 0 5 -7 17 -15 28 -8 10 -14 15 -14 9z"/>
<path d="M2030 1221 c-14 -26 -13 -74 2 -89 33 -33 78 -2 78 52 0 49 -59 76
-80 37z m58 -3 c13 -13 16 -47 6 -72 -8 -21 -50 -21 -58 0 -15 39 0 84 29 84
6 0 16 -5 23 -12z"/>
<path d="M2260 1190 c-5 -51 -7 -55 -30 -55 -23 0 -26 5 -31 50 l-6 50 1 -55
c1 -54 1 -55 34 -58 39 -4 45 7 40 74 l-4 49 -4 -55z"/>
<path d="M2357 1233 c-11 -10 -8 -113 3 -113 6 0 8 11 6 25 -6 35 27 34 43 -1
6 -15 14 -24 17 -21 3 3 1 15 -5 26 -9 15 -8 26 1 41 11 18 10 23 -6 36 -21
15 -48 18 -59 7z m52 -12 c8 -5 11 -16 8 -25 -8 -21 -43 -21 -51 0 -11 30 13
44 43 25z"/>
<path d="M2612 1233 c13 -3 18 -18 21 -61 l3 -57 2 57 c2 44 6 58 20 61 9 3
-1 5 -23 5 -22 0 -32 -2 -23 -5z"/>
<path d="M2750 1180 l0 -60 33 1 c30 2 30 2 5 6 -36 6 -40 49 -5 56 l22 4 -22
2 c-35 2 -31 39 5 44 25 4 25 4 -5 6 l-33 1 0 -60z"/>
<path d="M2880 1235 c0 -6 7 -21 16 -33 14 -21 14 -25 -1 -48 -9 -14 -14 -28
-12 -31 3 -2 10 5 17 16 14 26 27 27 35 1 3 -11 10 -20 15 -20 5 0 1 13 -8 30
-14 24 -15 33 -4 50 17 28 15 39 -4 15 -15 -20 -15 -20 -34 5 -11 14 -20 20
-20 15z"/>
<path d="M3032 1233 c13 -3 18 -18 21 -61 l3 -57 2 57 c2 50 5 57 25 61 12 2
2 4 -23 4 -25 1 -37 -1 -28 -4z"/>
<path d="M3270 1180 c0 -35 3 -61 6 -58 7 8 7 108 0 115 -3 4 -6 -22 -6 -57z"/>
<path d="M3343 1180 c0 -36 2 -50 4 -32 2 17 2 47 0 65 -2 17 -4 3 -4 -33z"/>
<path d="M3437 1233 c-4 -3 -7 -30 -7 -60 l0 -53 38 1 c30 2 32 3 10 6 -22 3
-28 10 -28 28 0 14 7 25 18 28 16 4 16 5 0 6 -30 2 -22 39 10 44 26 4 26 4 -4
6 -17 0 -34 -2 -37 -6z"/>
<path d="M3581 1178 c1 -35 4 -51 6 -35 2 15 11 27 18 27 8 0 22 -12 30 -27
15 -27 15 -19 0 20 -4 10 -3 17 4 17 6 0 11 11 11 24 0 24 -16 36 -51 36 -17
0 -19 -7 -18 -62z m54 27 c0 -13 -8 -21 -22 -23 -19 -3 -23 1 -23 23 0 22 4
26 23 23 14 -2 22 -10 22 -23z"/>
<path d="M3730 1180 l0 -60 38 2 c36 1 36 1 5 5 -27 4 -33 9 -33 28 0 17 7 25
23 28 l22 4 -22 2 c-38 2 -30 39 10 44 31 4 31 4 -5 5 l-38 2 0 -60z"/>
<path d="M1222 1178 l-2 -58 33 1 c29 2 30 2 5 6 -25 4 -27 9 -31 56 l-3 52
-2 -57z"/>
</g>
</svg>
