<svg width="22" height="22" viewBox="0 0 22 22" fill="none" xmlns="http://www.w3.org/2000/svg">
<g clip-path="url(#clip0_136_3796)">
<path d="M11 1.98086C13.9391 1.98086 14.2871 1.99375 15.443 2.04531C16.5172 2.09258 17.0973 2.27305 17.484 2.42344C17.9953 2.62109 18.3648 2.86172 18.7473 3.24414C19.134 3.63086 19.3703 3.99609 19.568 4.50742C19.7184 4.89414 19.8988 5.47852 19.9461 6.54844C19.9977 7.70859 20.0106 8.05664 20.0106 10.9914C20.0106 13.9305 19.9977 14.2785 19.9461 15.4344C19.8988 16.5086 19.7184 17.0887 19.568 17.4754C19.3703 17.9867 19.1297 18.3563 18.7473 18.7387C18.3605 19.1254 17.9953 19.3617 17.484 19.5594C17.0973 19.7098 16.5129 19.8902 15.443 19.9375C14.2828 19.9891 13.9348 20.002 11 20.002C8.06094 20.002 7.71289 19.9891 6.55703 19.9375C5.48281 19.8902 4.90274 19.7098 4.51602 19.5594C4.00469 19.3617 3.63516 19.1211 3.25273 18.7387C2.86602 18.352 2.62969 17.9867 2.43203 17.4754C2.28164 17.0887 2.10117 16.5043 2.05391 15.4344C2.00234 14.2742 1.98945 13.9262 1.98945 10.9914C1.98945 8.05234 2.00234 7.7043 2.05391 6.54844C2.10117 5.47422 2.28164 4.89414 2.43203 4.50742C2.62969 3.99609 2.87031 3.62656 3.25273 3.24414C3.63945 2.85742 4.00469 2.62109 4.51602 2.42344C4.90274 2.27305 5.48711 2.09258 6.55703 2.04531C7.71289 1.99375 8.06094 1.98086 11 1.98086ZM11 0C8.01367 0 7.63984 0.0128906 6.4668 0.0644531C5.29805 0.116016 4.49453 0.305078 3.79844 0.575781C3.07227 0.859375 2.45781 1.2332 1.84766 1.84766C1.2332 2.45781 0.859375 3.07227 0.575781 3.79414C0.305078 4.49453 0.116016 5.29375 0.0644531 6.4625C0.0128906 7.63984 0 8.01367 0 11C0 13.9863 0.0128906 14.3602 0.0644531 15.5332C0.116016 16.702 0.305078 17.5055 0.575781 18.2016C0.859375 18.9277 1.2332 19.5422 1.84766 20.1523C2.45781 20.7625 3.07227 21.1406 3.79414 21.4199C4.49453 21.6906 5.29375 21.8797 6.4625 21.9313C7.63555 21.9828 8.00938 21.9957 10.9957 21.9957C13.982 21.9957 14.3559 21.9828 15.5289 21.9313C16.6977 21.8797 17.5012 21.6906 18.1973 21.4199C18.9191 21.1406 19.5336 20.7625 20.1438 20.1523C20.7539 19.5422 21.132 18.9277 21.4113 18.2059C21.682 17.5055 21.8711 16.7063 21.9227 15.5375C21.9742 14.3645 21.9871 13.9906 21.9871 11.0043C21.9871 8.01797 21.9742 7.64414 21.9227 6.47109C21.8711 5.30234 21.682 4.49883 21.4113 3.80273C21.1406 3.07227 20.7668 2.45781 20.1523 1.84766C19.5422 1.2375 18.9277 0.859375 18.2059 0.580078C17.5055 0.309375 16.7063 0.120313 15.5375 0.06875C14.3602 0.0128906 13.9863 0 11 0Z" fill="white"/>
<path d="M11 5.34961C7.88047 5.34961 5.34961 7.88047 5.34961 11C5.34961 14.1195 7.88047 16.6504 11 16.6504C14.1195 16.6504 16.6504 14.1195 16.6504 11C16.6504 7.88047 14.1195 5.34961 11 5.34961ZM11 14.6652C8.97617 14.6652 7.33477 13.0238 7.33477 11C7.33477 8.97617 8.97617 7.33477 11 7.33477C13.0238 7.33477 14.6652 8.97617 14.6652 11C14.6652 13.0238 13.0238 14.6652 11 14.6652Z" fill="white"/>
<path d="M18.193 5.12603C18.193 5.8565 17.6 6.44517 16.8738 6.44517C16.1434 6.44517 15.5547 5.8522 15.5547 5.12603C15.5547 4.39556 16.1477 3.80688 16.8738 3.80688C17.6 3.80688 18.193 4.39985 18.193 5.12603Z" fill="white"/>
</g>
<defs>
<clipPath id="clip0_136_3796">
<rect width="22" height="22" fill="white"/>
</clipPath>
</defs>
</svg>
