<svg width="907" height="800" viewBox="0 0 907 800" fill="none" xmlns="http://www.w3.org/2000/svg">
<defs>
    <radialGradient
        id="grad1"
        cx="50%"
        cy="50%"
        r="50%"
        fx="50%"
        fy="50%"
    >
        <stop offset="0%" stop-color="#00ECBC" />
        <stop offset="100%" stop-color="#007ADF" />
    </radialGradient>
</defs>
<path fill-rule="evenodd" clip-rule="evenodd" d="M453.208 48.8263L361.815 222.848L286.698 176.526L335.524 145.227L453.208 0L570.892 145.227L619.718 176.526L544.601 222.848L453.208 48.8263ZM164.006 116.432L0 57.59L130.203 147.731L344.288 235.368L164.006 116.432ZM906.416 57.59L742.41 116.432L562.128 235.368L776.213 147.731L906.416 57.59ZM251.643 209.077H220.344L156.494 403.13L333.02 245.383L251.643 209.077ZM686.072 209.077H654.773L573.396 245.383L749.922 403.13L686.072 209.077ZM225.352 416.901L326.761 279.186L131.455 441.941L18.7793 598.435L225.352 416.901ZM579.656 279.186L681.064 416.901L887.637 598.435L774.961 441.941L579.656 279.186ZM386.854 330.516L425.665 260.407L326.761 330.516L256.651 421.909L386.854 330.516ZM480.751 260.407L519.562 330.516L649.765 421.909L579.655 330.516L480.751 260.407ZM431.925 309.233L454.46 191.549L475.743 309.233L504.538 346.792L513.302 385.602L553.365 421.909L411.894 538.341L405.634 471.987L361.815 421.909L388.106 394.366L396.87 346.792L431.925 309.233ZM415.65 559.624L502.035 485.759L455.712 800L415.65 559.624Z" fill="url(#grad1)"/>
</svg>
